<svg width="800" height="600" viewBox="0 0 800 600" fill="none" xmlns="http://www.w3.org/2000/svg">
<path d="M-50 0H850V200H-50V0Z" fill="black"/>
<path d="M-50 200H850V400H-50V200Z" fill="#DD0000"/>
<path d="M-50 400H850V600H-50V400Z" fill="#FFCE00"/>
<path d="M516.018 298.195C516.018 329.306 503.789 359.143 482.021 381.142C460.253 403.141 430.73 415.5 399.945 415.5C369.161 415.5 339.637 403.141 317.869 381.142C296.102 359.143 283.873 329.306 283.873 298.195C283.873 267.084 296.102 237.247 317.869 215.248C339.637 193.249 369.161 180.891 399.945 180.891C430.73 180.891 460.253 193.249 482.021 215.248C503.789 237.247 516.018 267.084 516.018 298.195Z" fill="#DD0000"/>
<path fill-rule="evenodd" clip-rule="evenodd" d="M405.761 441.024L369.85 457.996L366.055 455.149L399.764 439.258L405.761 441.024Z" fill="#FFC709" stroke="black" stroke-width="1.27859"/>
<path fill-rule="evenodd" clip-rule="evenodd" d="M409.561 443.872L373.65 460.844L369.855 457.997L403.564 442.105L409.561 443.872Z" fill="#FFC709" stroke="black" stroke-width="1.27859"/>
<path fill-rule="evenodd" clip-rule="evenodd" d="M413.357 446.705L377.446 463.678L373.652 460.83L407.361 444.939L413.357 446.705Z" fill="#FFC709" stroke="black" stroke-width="1.27859"/>
<path fill-rule="evenodd" clip-rule="evenodd" d="M417.145 449.548L381.234 466.521L377.44 463.674L411.149 447.782L417.145 449.548Z" fill="#FFC709" stroke="black" stroke-width="1.27859"/>
<path fill-rule="evenodd" clip-rule="evenodd" d="M420.939 452.39L385.028 469.362L381.234 466.515L414.943 450.624L420.939 452.39Z" fill="#FFC709" stroke="black" stroke-width="1.27859"/>
<path fill-rule="evenodd" clip-rule="evenodd" d="M393.849 441.002L429.76 457.975L433.554 455.127L399.845 439.236L393.849 441.002Z" fill="#FFC709" stroke="black" stroke-width="1.27859"/>
<path fill-rule="evenodd" clip-rule="evenodd" d="M390.007 443.857L425.918 460.83L429.712 457.983L396.003 442.091L390.007 443.857Z" fill="#FFC709" stroke="black" stroke-width="1.27859"/>
<path fill-rule="evenodd" clip-rule="evenodd" d="M386.164 446.713L422.075 463.686L425.87 460.838L392.161 444.947L386.164 446.713Z" fill="#FFC709" stroke="black" stroke-width="1.27859"/>
<path fill-rule="evenodd" clip-rule="evenodd" d="M382.362 449.54L418.273 466.513L422.067 463.666L388.358 447.774L382.362 449.54Z" fill="#FFC709" stroke="black" stroke-width="1.27859"/>
<path fill-rule="evenodd" clip-rule="evenodd" d="M378.582 452.356L414.493 469.328L418.287 466.481L384.578 450.59L378.582 452.356Z" fill="#FFC709" stroke="black" stroke-width="1.27859"/>
<path d="M401.57 200.567L350.516 203.31V233.378L401.57 236.121H407.1L449.67 229.869V206.819L407.1 200.567H401.57Z" fill="black" stroke="black" stroke-width="2.55719" stroke-miterlimit="5" stroke-linejoin="round"/>
<path d="M408.593 251.823H390.991C388.52 251.823 386.517 253.826 386.517 256.296V397.664C386.517 400.134 388.52 402.136 390.991 402.136H408.593C411.064 402.136 413.067 400.134 413.067 397.664V256.296C413.067 253.826 411.064 251.823 408.593 251.823Z" fill="#FFC709" stroke="black" stroke-width="2.81291" stroke-linejoin="round"/>
<path d="M459.849 299.921C444.76 315.497 423.638 325.196 400.252 325.196C383.534 325.196 367.977 320.229 354.946 311.715L344.327 327.408C360.388 337.975 379.6 344.142 400.252 344.142C428.915 344.142 454.813 332.277 473.339 313.217L459.849 299.921Z" fill="#FFC709" stroke="black" stroke-width="2.81291"/>
<path fill-rule="evenodd" clip-rule="evenodd" d="M390.259 232.707L317.134 367.742L399.914 260.942L482.7 367.742L409.581 232.707L399.92 246.272L390.259 232.707Z" fill="#FFC709" stroke="black" stroke-width="2.81291"/>
<path d="M401.481 201.995L366.412 203.675L351.848 209.519V227.169L366.221 233.013L401.481 234.884H406.858L448.242 228.815V207.778L406.858 201.995H401.481Z" fill="#FFC709"/>
<path d="M411.935 240.84C411.935 234.13 406.494 228.691 399.783 228.691C393.071 228.691 387.63 234.13 387.63 240.84V241.444C387.63 248.154 393.071 253.593 399.783 253.593C406.494 253.593 411.935 248.154 411.935 241.444V240.84Z" fill="#FFC709" stroke="black" stroke-width="3.62445" stroke-miterlimit="5" stroke-linejoin="round"/>
<path d="M404.946 240.938C404.946 242.303 404.404 243.612 403.439 244.577C402.473 245.542 401.164 246.084 399.798 246.084C398.433 246.084 397.124 245.542 396.158 244.577C395.193 243.612 394.651 242.303 394.651 240.938C394.651 239.573 395.193 238.265 396.158 237.299C397.124 236.334 398.433 235.792 399.798 235.792C401.164 235.792 402.473 236.334 403.439 237.299C404.404 238.265 404.946 239.573 404.946 240.938Z" fill="#FFC709" stroke="black" stroke-width="1.2131" stroke-linejoin="round"/>
<path fill-rule="evenodd" clip-rule="evenodd" d="M305.269 422.574L259.317 371.199L241.282 306.733L247.705 247.207L277.105 190.151L322.563 155.078L349.739 144.951L357.398 156.066L370.739 160.018L363.08 166.44L362.092 182.988L315.645 213.369L287.481 260.298L284.764 313.155L298.846 359.096L352.704 410.471L305.269 422.574Z" fill="#FFC709"/>
<path fill-rule="evenodd" clip-rule="evenodd" d="M248.417 348.567C248.417 348.567 250.416 354.434 255.027 361.446C260.126 368.73 263.697 368.292 263.697 368.292C263.697 368.292 269.172 369.103 269.799 364.828C269.947 360.568 267.017 359.132 267.014 359.037C267.017 359.133 263.798 356.835 259.681 355.153C256.125 352.972 256.35 353.011 254.243 350.295C252.891 347.171 253.348 349.362 249.872 337.089C246.396 324.816 244.89 317.969 244.794 317.972L240.428 318.98L245.003 336.867L246.599 342.96L248.417 348.567Z" fill="#FFC709" stroke="black" stroke-width="1.27859" stroke-linejoin="round"/>
<path fill-rule="evenodd" clip-rule="evenodd" d="M245.962 306.688L255.467 338.478C255.467 338.478 256.592 341.928 257.276 345.467C257.313 349.701 256.562 351.391 256.562 351.391C256.466 351.394 256.111 353.647 255.906 355.957C255.828 359.127 257.239 361.281 257.236 361.185C257.239 361.281 258.318 362.841 261.429 363.017C265.005 362.792 265.454 360.217 265.454 360.217C265.454 360.217 265.997 359.941 265.72 356.369C265.442 352.798 263.45 347.241 263.45 347.241L249.874 304.338L245.962 306.688Z" fill="#FFC709" stroke="black" stroke-width="1.27859" stroke-linejoin="round"/>
<path fill-rule="evenodd" clip-rule="evenodd" d="M240.135 298.885L248.487 330.997C248.487 330.997 249.487 334.486 250.043 338.047C249.927 342.28 249.115 343.941 249.115 343.941C249.02 343.941 248.583 346.179 248.295 348.481C248.103 351.646 249.436 353.849 249.436 353.753C249.436 353.849 250.458 355.447 253.56 355.735C257.142 355.639 257.684 353.082 257.684 353.082C257.684 353.082 258.237 352.826 258.088 349.247C257.939 345.667 256.149 340.042 256.149 340.042L244.129 296.678L240.135 298.885Z" fill="#FFC709" stroke="black" stroke-width="1.27859" stroke-linejoin="round"/>
<path fill-rule="evenodd" clip-rule="evenodd" d="M243.06 346.052C243.06 346.052 244.982 351.945 249.501 359.017C254.506 366.366 258.082 365.974 258.082 365.974C258.082 365.974 263.545 366.857 264.228 362.59C264.431 358.333 261.521 356.859 261.519 356.763C261.521 356.859 258.332 354.52 254.237 352.784C250.709 350.557 250.933 350.599 248.862 347.856C247.551 344.714 247.98 346.912 244.663 334.595C241.347 322.278 239.93 315.411 239.834 315.413L235.456 316.364L239.798 334.309L241.315 340.423L243.06 346.052Z" fill="#FFC709" stroke="black" stroke-width="1.27859" stroke-linejoin="round"/>
<path fill-rule="evenodd" clip-rule="evenodd" d="M259.752 326.992C259.752 326.992 261.349 332.85 265.225 339.922C269.526 347.279 272.7 346.964 272.7 346.964C272.7 346.964 277.523 347.944 278.205 343.744C278.461 339.544 275.909 338.031 275.909 337.936C275.909 338.031 273.127 335.658 269.531 333.862C266.446 331.593 266.644 331.639 264.859 328.889C263.754 325.76 264.094 327.939 261.378 315.71C258.661 303.481 257.529 296.673 257.444 296.673L253.549 297.525L257.073 315.331L258.307 321.398L259.752 326.992Z" fill="#FFC709" stroke="black" stroke-width="1.19599" stroke-linejoin="round"/>
<path fill-rule="evenodd" clip-rule="evenodd" d="M264.303 327.752C264.303 327.752 266.107 333.683 270.484 340.843C275.341 348.291 278.923 347.971 278.923 347.971C278.923 347.971 284.368 348.962 285.137 344.709C285.425 340.457 282.544 338.925 282.544 338.829C282.544 338.926 279.403 336.523 275.344 334.706C271.861 332.409 272.084 332.455 270.068 329.672C268.82 326.504 269.205 328.71 266.136 316.329C263.067 303.948 261.787 297.055 261.691 297.055L257.294 297.918L261.277 315.946L262.671 322.089L264.303 327.752Z" fill="#FFC709" stroke="black" stroke-width="1.27859" stroke-linejoin="round"/>
<path fill-rule="evenodd" clip-rule="evenodd" d="M259.572 294.545L267.924 326.657C267.924 326.657 268.924 330.146 269.48 333.707C269.364 337.939 268.552 339.601 268.552 339.601C268.456 339.601 268.02 341.839 267.732 344.14C267.54 347.305 268.873 349.509 268.873 349.413C268.873 349.509 269.895 351.107 272.997 351.395C276.579 351.299 277.12 348.742 277.12 348.742C277.12 348.742 277.674 348.486 277.525 344.907C277.376 341.327 275.586 335.702 275.586 335.702L263.566 292.338L259.572 294.545Z" fill="#FFC709" stroke="black" stroke-width="1.27859" stroke-linejoin="round"/>
<path fill-rule="evenodd" clip-rule="evenodd" d="M275.248 304.416L285.54 335.96C285.54 335.96 286.75 339.381 287.522 342.902C287.664 347.134 286.955 348.842 286.955 348.842C286.859 348.848 286.56 351.108 286.413 353.423C286.414 356.594 287.878 358.712 287.872 358.616C287.878 358.712 288.996 360.245 292.11 360.343C295.679 360.03 296.064 357.444 296.064 357.444C296.064 357.444 296.6 357.156 296.234 353.592C295.868 350.028 293.738 344.522 293.738 344.522L279.1 301.97L275.248 304.416Z" fill="#FFC709" stroke="black" stroke-width="1.27859" stroke-linejoin="round"/>
<path fill-rule="evenodd" clip-rule="evenodd" d="M280.763 346.071C280.763 346.071 282.745 351.944 287.337 358.969C292.417 366.266 295.989 365.838 295.989 365.838C295.989 365.838 301.461 366.663 302.1 362.39C302.259 358.131 299.334 356.687 299.331 356.591C299.334 356.687 296.121 354.381 292.009 352.688C288.458 350.497 288.683 350.537 286.583 347.815C285.24 344.687 285.691 346.88 282.248 334.598C278.805 322.315 277.318 315.464 277.222 315.467L272.853 316.463L277.38 334.362L278.96 340.46L280.763 346.071Z" fill="#FFC709" stroke="black" stroke-width="1.27859" stroke-linejoin="round"/>
<path fill-rule="evenodd" clip-rule="evenodd" d="M257.72 335.167C257.72 335.167 259.523 341.097 263.9 348.258C268.757 355.706 272.34 355.385 272.34 355.385C272.34 355.385 277.785 356.377 278.553 352.124C278.841 347.872 275.961 346.34 275.961 346.244C275.961 346.341 272.819 343.938 268.76 342.121C265.277 339.824 265.501 339.87 263.485 337.087C262.236 333.919 262.621 336.125 259.552 323.744C256.483 311.363 255.204 304.47 255.108 304.47L250.711 305.333L254.693 323.361L256.087 329.504L257.72 335.167Z" fill="#FFC709" stroke="black" stroke-width="1.27859" stroke-linejoin="round"/>
<path fill-rule="evenodd" clip-rule="evenodd" d="M252.828 331.752C252.828 331.752 254.632 337.682 259.009 344.842C263.865 352.29 267.448 351.97 267.448 351.97C267.448 351.97 272.893 352.962 273.661 348.709C273.949 344.457 271.069 342.925 271.069 342.829C271.069 342.925 267.927 340.523 263.869 338.706C260.386 336.409 260.609 336.455 258.593 333.672C257.345 330.504 257.73 332.71 254.661 320.329C251.592 307.948 250.312 301.055 250.216 301.055L245.819 301.918L249.802 319.946L251.196 326.089L252.828 331.752Z" fill="#FFC709" stroke="black" stroke-width="1.27859" stroke-linejoin="round"/>
<path fill-rule="evenodd" clip-rule="evenodd" d="M264.733 297.582L273.085 329.693C273.085 329.693 274.085 333.182 274.641 336.743C274.525 340.976 273.714 342.637 273.714 342.637C273.618 342.637 273.181 344.876 272.893 347.177C272.701 350.342 274.034 352.545 274.034 352.449C274.034 352.546 275.056 354.143 278.158 354.431C281.74 354.335 282.282 351.778 282.282 351.778C282.282 351.778 282.835 351.523 282.686 347.943C282.537 344.363 280.747 338.738 280.747 338.738L268.727 295.374L264.733 297.582Z" fill="#FFC709" stroke="black" stroke-width="1.27859" stroke-linejoin="round"/>
<path fill-rule="evenodd" clip-rule="evenodd" d="M286.311 347.643C286.311 347.643 288.55 353.423 293.446 360.239C298.842 367.306 302.391 366.721 302.391 366.721C302.391 366.721 307.895 367.306 308.345 363.009C308.317 358.747 305.331 357.433 305.324 357.337C305.331 357.433 302.02 355.27 297.837 353.759C294.194 351.727 294.42 351.756 292.203 349.13C290.723 346.064 291.27 348.235 287.291 336.115C283.312 323.996 281.525 317.217 281.429 317.224L277.108 318.411L282.417 336.094L284.264 342.116L286.311 347.643Z" fill="#FFC709" stroke="black" stroke-width="1.27859" stroke-linejoin="round"/>
<path fill-rule="evenodd" clip-rule="evenodd" d="M281.386 310.707L292.863 341.374C292.863 341.374 294.202 344.693 295.107 348.145C295.409 352.359 294.766 354.121 294.766 354.121C294.67 354.135 294.458 356.416 294.399 358.739C294.52 361.904 296.063 363.902 296.053 363.806C296.063 363.902 297.237 365.342 300.35 365.191C303.903 364.591 304.189 361.979 304.189 361.979C304.189 361.979 304.713 358.576 303.732 355.239C302.943 351.039 295.423 337.266 292.446 327.956L285.812 307.667L281.386 310.707Z" fill="#FFC709" stroke="black" stroke-width="1.27859" stroke-linejoin="round"/>
<path fill-rule="evenodd" clip-rule="evenodd" d="M276.702 192.92C276.702 192.92 272.389 197.797 266.433 207.692C260.668 217.396 260.424 217.793 257.737 225.079C255.819 232.174 255.801 234.572 257.13 238.535C258.844 241.73 260.522 242.402 262.085 242.466C263.648 242.53 264.451 242.101 265.601 240.336C267.902 235.115 265.001 232.494 264.131 228.147C263.261 223.801 263.621 227.142 263.619 223.923C264.098 219.648 265.441 218.528 266.017 217.376C266.881 215.745 267.489 214.516 272.315 207.318C277.332 199.639 279.731 195.419 279.731 195.419C279.731 195.419 280.261 193.703 279.102 192.863C277.99 192.056 276.702 192.92 276.702 192.92Z" fill="#FFC709" stroke="black" stroke-width="1.27859"/>
<path fill-rule="evenodd" clip-rule="evenodd" d="M273.496 191.386C273.496 191.386 269.183 196.263 263.227 206.158C257.462 215.862 257.218 216.258 254.531 223.545C252.613 230.64 252.595 233.038 253.924 237.001C255.638 240.195 257.316 240.868 258.879 240.932C260.443 240.996 261.245 240.567 262.395 238.802C264.697 233.581 261.795 230.96 260.925 226.613C260.055 222.267 260.415 225.608 260.414 222.389C260.892 218.113 262.235 216.994 262.811 215.842C263.675 214.21 264.284 212.982 269.109 205.783C274.126 198.105 276.526 193.885 276.526 193.885C276.526 193.885 277.055 192.169 275.896 191.328C274.784 190.522 273.496 191.386 273.496 191.386Z" fill="#FFC709" stroke="black" stroke-width="1.27859"/>
<path fill-rule="evenodd" clip-rule="evenodd" d="M300.184 183.651C300.184 183.651 295.275 187.928 288.084 196.966C281.109 205.839 280.815 206.201 277.205 213.078C274.382 219.863 274.053 222.239 274.857 226.34C276.141 229.731 277.718 230.615 279.259 230.882C280.801 231.148 281.652 230.827 283.021 229.225C285.982 224.347 283.445 221.372 283.146 216.95C282.848 212.527 282.771 215.886 283.188 212.694C284.217 208.517 285.694 207.582 286.415 206.514C287.484 205.008 288.246 203.869 293.965 197.358C299.937 190.395 302.864 186.523 302.864 186.523C302.864 186.523 303.612 184.89 302.572 183.906C301.574 182.962 300.184 183.651 300.184 183.651Z" fill="#FFC709" stroke="black" stroke-width="1.27859"/>
<path fill-rule="evenodd" clip-rule="evenodd" d="M285.108 183.664C285.108 183.664 277.436 196.208 274.659 201.011C271.274 206.293 268.181 213.759 265.235 217.717C261.677 221.474 258.127 222.094 255.637 224.497C252.782 227.052 252.256 228.291 252.121 230.444C252.194 233.343 255.037 235.441 257.891 234.503C260.735 234.148 263.886 229.586 263.886 229.586C263.886 229.586 267.95 221.882 270.755 216.579C276.851 203.997 289.06 185.445 289.06 185.445L285.108 183.664Z" fill="#FFC709" stroke="black" stroke-width="1.27859"/>
<path fill-rule="evenodd" clip-rule="evenodd" d="M269.533 191.519C269.533 191.519 265.22 196.397 259.264 206.292C253.5 215.995 253.255 216.392 250.569 223.679C248.65 230.774 248.632 233.172 249.962 237.134C251.676 240.329 253.354 241.002 254.917 241.066C256.48 241.129 257.283 240.701 258.432 238.935C260.734 233.714 257.833 231.094 256.963 226.747C256.092 222.4 256.453 225.741 256.451 222.522C256.929 218.247 258.273 217.128 258.849 215.976C259.713 214.344 260.321 213.116 265.146 205.917C270.164 198.238 272.563 194.019 272.563 194.019C272.563 194.019 273.092 192.303 271.933 191.462C270.822 190.656 269.533 191.519 269.533 191.519Z" fill="#FFC709" stroke="black" stroke-width="1.27859"/>
<path fill-rule="evenodd" clip-rule="evenodd" d="M308.684 185.349C308.684 185.349 299.26 196.637 295.811 200.983C291.691 205.714 287.54 212.647 284.047 216.133C279.978 219.33 276.375 219.424 273.561 221.438C270.363 223.549 269.661 224.698 269.213 226.808C268.862 229.686 271.367 232.177 274.328 231.666C277.194 231.731 280.978 227.677 280.978 227.677C280.978 227.677 286.124 220.65 289.673 215.813C297.544 204.257 312.332 187.688 312.332 187.688L308.684 185.349Z" fill="#FFC709" stroke="black" stroke-width="1.27859"/>
<path fill-rule="evenodd" clip-rule="evenodd" d="M303.28 186.175C303.28 186.175 298.426 190.515 291.353 199.645C284.493 208.608 284.203 208.973 280.683 215.896C277.947 222.717 277.649 225.097 278.505 229.188C279.834 232.561 281.421 233.425 282.966 233.672C284.511 233.918 285.359 233.586 286.707 231.967C289.604 227.051 287.029 224.109 286.673 219.691C286.318 215.272 286.285 218.632 286.66 215.435C287.635 211.245 289.1 210.291 289.807 209.214C290.856 207.695 291.604 206.546 297.238 199.961C303.12 192.922 305.996 189.012 305.996 189.012C305.996 189.012 306.723 187.37 305.67 186.399C304.661 185.468 303.28 186.175 303.28 186.175Z" fill="#FFC709" stroke="black" stroke-width="1.27859"/>
<path fill-rule="evenodd" clip-rule="evenodd" d="M312.279 186.988C312.279 186.988 302.855 198.276 299.406 202.623C295.286 207.353 291.135 214.287 287.642 217.772C283.573 220.969 279.97 221.064 277.156 223.078C273.958 225.188 273.256 226.337 272.808 228.447C272.457 231.325 274.962 233.816 277.923 233.305C280.789 233.37 284.573 229.316 284.573 229.316C284.573 229.316 289.719 222.289 293.268 217.453C301.139 205.897 315.927 189.327 315.927 189.327L312.279 186.988Z" fill="#FFC709" stroke="black" stroke-width="1.27859"/>
<path fill-rule="evenodd" clip-rule="evenodd" d="M295.494 181.615C295.494 181.615 290.622 185.935 283.513 195.037C276.616 203.971 276.325 204.336 272.777 211.244C270.014 218.055 269.706 220.433 270.546 224.527C271.861 227.906 273.445 228.777 274.989 229.029C276.533 229.281 277.382 228.953 278.736 227.34C281.653 222.435 279.09 219.483 278.752 215.063C278.414 210.643 278.368 214.003 278.756 210.807C279.748 206.622 281.217 205.673 281.928 204.599C282.983 203.084 283.736 201.938 289.397 195.376C295.307 188.36 298.199 184.462 298.199 184.462C298.199 184.462 298.932 182.823 297.883 181.848C296.877 180.913 295.494 181.615 295.494 181.615Z" fill="#FFC709" stroke="black" stroke-width="1.27859"/>
<path fill-rule="evenodd" clip-rule="evenodd" d="M313.312 192.191C313.312 192.191 303.889 203.48 300.44 207.826C296.319 212.557 292.168 219.49 288.675 222.976C284.606 226.173 281.004 226.267 278.19 228.281C274.992 230.391 274.29 231.541 273.842 233.651C273.49 236.529 275.996 239.02 278.957 238.509C281.822 238.573 285.606 234.52 285.606 234.52C285.606 234.52 290.752 227.493 294.302 222.656C302.172 211.1 316.961 194.531 316.961 194.531L313.312 192.191Z" fill="#FFC709" stroke="black" stroke-width="1.27859"/>
<path fill-rule="evenodd" clip-rule="evenodd" d="M310.441 201.348C310.441 201.348 300.616 213.584 297.032 218.287C292.725 223.423 288.501 230.867 284.822 234.67C280.492 238.197 276.513 238.453 273.508 240.685C270.083 243.035 269.368 244.27 268.984 246.5C268.747 249.53 271.648 252.031 274.895 251.366C278.067 251.309 282.037 246.898 282.037 246.898C282.037 246.898 287.357 239.313 291.027 234.091C299.12 221.642 314.598 203.639 314.598 203.639L310.441 201.348Z" fill="#FFC709" stroke="black" stroke-width="1.3775"/>
<path fill-rule="evenodd" clip-rule="evenodd" d="M313.41 211.436C313.41 211.436 312.049 213.078 300.544 227.844C290.024 244.006 288.425 247.05 288.425 247.05C288.425 247.05 286.73 250.172 285.015 251.107C283.301 252.043 280.378 251.94 279.499 251.27C278.662 250.631 278.193 250.531 277.907 247.411C278.227 245.571 278.763 244.838 279.528 244.148C281.084 242.969 281.88 242.771 283.791 242.165C285.68 241.185 286.407 240.242 287.693 238.492C290.237 234.484 291.373 232.525 295.646 226.685C301.185 218.967 305.541 214.264 310.602 208.215L313.41 211.436Z" fill="#FFC709" stroke="black" stroke-width="1.27859"/>
<path fill-rule="evenodd" clip-rule="evenodd" d="M313.929 208.66C313.929 208.66 304.94 221.034 301.681 225.776C297.721 230.983 294.041 238.379 290.609 242.272C286.488 245.951 282.449 246.495 279.571 248.845C276.275 251.337 275.649 252.565 275.447 254.714C275.462 257.612 278.637 259.77 281.895 258.893C285.127 258.599 288.805 254.106 288.805 254.106C288.805 254.106 293.591 246.493 296.893 241.252C304.097 228.807 318.367 210.524 318.367 210.524L313.929 208.66Z" fill="#FFC709" stroke="black" stroke-width="1.3617"/>
<path fill-rule="evenodd" clip-rule="evenodd" d="M320.993 213.02C320.993 213.02 319.718 214.731 308.992 230.071C299.322 246.755 297.882 249.878 297.882 249.878C297.882 249.878 296.351 253.083 294.687 254.106C293.023 255.129 290.099 255.177 289.187 254.553C288.317 253.958 287.844 253.883 287.397 250.782C287.621 248.928 288.118 248.168 288.847 247.439C290.34 246.182 291.125 245.943 293.002 245.238C294.838 244.163 295.515 243.183 296.709 241.369C299.042 237.235 300.075 235.22 304.041 229.167C309.174 221.173 313.28 216.251 318.022 209.948L320.993 213.02Z" fill="#FFC709" stroke="black" stroke-width="1.27859"/>
<path d="M382.977 130.528C368.238 132.081 354.064 135.54 340.721 140.685L341.859 142.967C355.189 137.855 369.191 134.514 383.386 133.008C384.622 132.868 384.349 130.394 382.977 130.528Z" fill="#FFC709" stroke="black" stroke-width="1.05111" stroke-linecap="round" stroke-linejoin="round"/>
<path d="M391.5 134.466C377.963 135.167 367.052 137.233 355.778 140.526C351.396 141.783 347.073 143.238 342.818 144.872L343.975 147.186C359.246 141.379 375.41 137.937 391.724 137.01C393.227 136.848 393.016 134.491 391.5 134.466Z" fill="#FFC709" stroke="black" stroke-width="1.02287" stroke-linecap="round" stroke-linejoin="round"/>
<path d="M385.234 139.618C371.469 141.017 357.872 144.183 344.928 149.078L345.9 151.021C358.648 146.226 372.037 143.131 385.586 141.74C386.841 141.65 386.587 139.502 385.234 139.618Z" fill="#FFC709" stroke="black" stroke-width="1.02287" stroke-linecap="round" stroke-linejoin="round"/>
<path d="M346.667 152.556L347.818 154.85C366.019 148.227 382.241 145.688 396.186 145.275C397.632 145.186 397.637 142.833 395.995 142.744C380.154 143.293 361.93 146.828 346.667 152.556Z" fill="#FFC709" stroke="black" stroke-width="1.02287" stroke-linecap="round" stroke-linejoin="round"/>
<path d="M388.61 147.73C376.485 148.732 362.84 151.583 348.777 156.768L349.953 159.114C362.048 154.636 378.252 151.045 389.051 150.248C390.551 150.026 390.198 147.609 388.61 147.73ZM351.104 161.402L352.249 163.691C364.561 159.172 384.775 154.896 396.513 155.093C397.78 154.994 397.675 152.63 396.404 152.53C381.685 152.523 366.296 155.893 351.104 161.402ZM387.267 157.989C375.728 159.309 364.323 161.992 353.399 165.986L354.544 168.268C364.83 164.552 376.187 161.687 387.561 160.552C389.247 160.315 389.012 157.883 387.267 157.989ZM355.682 170.543L356.833 172.832C366.909 169.219 382.828 165.851 393.661 165.289C395.235 165.11 395.026 162.735 393.443 162.694C380.761 163.175 366.942 166.595 355.682 170.543ZM394.588 168.217C385.196 168.288 368.739 171.747 358.175 175.51L359.327 177.805C369.424 174.233 386.058 170.945 394.709 170.741C396.453 170.723 396.413 168.235 394.588 168.217ZM386.577 174.155C377.769 175.409 369.064 177.52 360.663 180.477L361.807 182.759C369.831 179.852 378.772 177.706 387.107 176.616C388.715 176.276 388.332 173.809 386.577 174.155ZM394.262 178.361C384.56 178.708 371.891 181.56 362.798 184.74L363.949 187.035C372.426 184.111 384.528 181.272 394.3 180.918C396.072 180.82 395.922 178.253 394.262 178.361Z" fill="#FFC709" stroke="black" stroke-width="1.02287" stroke-linecap="round" stroke-linejoin="round"/>
<path fill-rule="evenodd" clip-rule="evenodd" d="M376.449 171.391C376.449 171.391 356.145 167.103 357.405 178.471C362.649 187.849 376.449 171.391 376.449 171.391Z" fill="#FFC709" stroke="black" stroke-width="1.2319" stroke-linejoin="round"/>
<path fill-rule="evenodd" clip-rule="evenodd" d="M372.063 184.387C372.063 184.387 355.595 195.047 352.716 184.558C354.062 174.484 372.063 184.387 372.063 184.387Z" fill="#FFC709" stroke="black" stroke-width="1.17038" stroke-linejoin="round"/>
<path fill-rule="evenodd" clip-rule="evenodd" d="M359.604 170.543C359.604 170.543 340.591 175.209 346.45 184.584C354.845 190.579 359.604 170.543 359.604 170.543Z" fill="#FFC709" stroke="black" stroke-width="1.17642" stroke-linejoin="round"/>
<path fill-rule="evenodd" clip-rule="evenodd" d="M359.969 189.823C359.969 189.823 343.662 199.133 341.686 188.756C343.671 179.051 359.969 189.823 359.969 189.823Z" fill="#FFC709" stroke="black" stroke-width="1.12387" stroke-linejoin="round"/>
<path fill-rule="evenodd" clip-rule="evenodd" d="M347.139 174.683C347.139 174.683 329.091 181.484 335.937 189.885C344.864 194.701 347.139 174.683 347.139 174.683Z" fill="#FFC709" stroke="black" stroke-width="1.15504" stroke-linejoin="round"/>
<path fill-rule="evenodd" clip-rule="evenodd" d="M349.698 194.966C349.698 194.966 334.244 204.419 332.539 194.051C334.545 184.324 349.698 194.966 349.698 194.966Z" fill="#FFC709" stroke="black" stroke-width="1.09103" stroke-linejoin="round"/>
<path fill-rule="evenodd" clip-rule="evenodd" d="M335.293 180.039C335.293 180.039 319.149 189.951 327.543 196.432C337.218 199.158 335.293 180.039 335.293 180.039Z" fill="#FFC709" stroke="black" stroke-width="1.12472" stroke-linejoin="round"/>
<path fill-rule="evenodd" clip-rule="evenodd" d="M341.547 199.23C341.547 199.23 326.781 211.202 323.204 201.195C323.669 191.202 341.547 199.23 341.547 199.23Z" fill="#FFC709" stroke="black" stroke-width="1.13271" stroke-linejoin="round"/>
<path fill-rule="evenodd" clip-rule="evenodd" d="M332.88 204.787C332.88 204.787 320.457 217.605 315.897 208.734C315.135 199.407 332.88 204.787 332.88 204.787Z" fill="#FFC709" stroke="black" stroke-width="1.06554" stroke-linejoin="round"/>
<path fill-rule="evenodd" clip-rule="evenodd" d="M325.493 187.519C325.493 187.519 309.744 197.416 318.1 203.637C327.664 206.174 325.493 187.519 325.493 187.519Z" fill="#FFC709" stroke="black" stroke-width="1.10328" stroke-linejoin="round"/>
<path fill-rule="evenodd" clip-rule="evenodd" d="M315.728 194.309C315.728 194.309 301.4 206.067 310.445 211.349C320.221 212.792 315.728 194.309 315.728 194.309Z" fill="#FFC709" stroke="black" stroke-width="1.10729" stroke-linejoin="round"/>
<path fill-rule="evenodd" clip-rule="evenodd" d="M324.561 212.133C324.561 212.133 312.127 226.008 307.504 216.215C306.696 205.977 324.561 212.133 324.561 212.133Z" fill="#FFC709" stroke="black" stroke-width="1.12087" stroke-linejoin="round"/>
<path fill-rule="evenodd" clip-rule="evenodd" d="M361.105 140.925C361.105 140.925 338.875 136.653 340.594 149.582C346.587 160.12 361.105 140.925 361.105 140.925Z" fill="#FFC709" stroke="black" stroke-width="1.37316" stroke-linejoin="round"/>
<path fill-rule="evenodd" clip-rule="evenodd" d="M342.677 139.57C342.677 139.57 322.257 148.442 330.708 157.581C341.333 162.508 342.677 139.57 342.677 139.57Z" fill="#FFC709" stroke="black" stroke-width="1.32706" stroke-linejoin="round"/>
<path fill-rule="evenodd" clip-rule="evenodd" d="M331.008 144.776C331.008 144.776 310.098 155.323 319.293 164.872C330.577 169.75 331.008 144.776 331.008 144.776Z" fill="#FFC709" stroke="black" stroke-width="1.41327" stroke-linejoin="round"/>
<path fill-rule="evenodd" clip-rule="evenodd" d="M318.918 150.691C318.918 150.691 299.462 162.506 309.04 171.09C320.301 174.98 318.918 150.691 318.918 150.691Z" fill="#FFC709" stroke="black" stroke-width="1.37352" stroke-linejoin="round"/>
<path fill-rule="evenodd" clip-rule="evenodd" d="M306.331 158.56C306.331 158.56 289.036 172.176 299.612 178.799C311.158 180.845 306.331 158.56 306.331 158.56Z" fill="#FFC709" stroke="black" stroke-width="1.31945" stroke-linejoin="round"/>
<path fill-rule="evenodd" clip-rule="evenodd" d="M296.767 165.514C296.767 165.514 279.999 179.936 290.718 186.277C302.258 187.942 296.767 165.514 296.767 165.514Z" fill="#FFC709" stroke="black" stroke-width="1.3253" stroke-linejoin="round"/>
<path fill-rule="evenodd" clip-rule="evenodd" d="M287.662 172.116C287.662 172.116 270.777 186.317 281.444 192.733C292.97 194.502 287.662 172.116 287.662 172.116Z" fill="#FFC709" stroke="black" stroke-width="1.32252" stroke-linejoin="round"/>
<path fill-rule="evenodd" clip-rule="evenodd" d="M278.158 180.472C278.158 180.472 263.308 196.653 274.578 201.689C286.123 202.01 278.158 180.472 278.158 180.472Z" fill="#FFC709" stroke="black" stroke-width="1.31571" stroke-linejoin="round"/>
<path fill-rule="evenodd" clip-rule="evenodd" d="M381.723 154.91C381.723 154.91 368.759 172.792 361.653 162.605C359.108 151.226 381.723 154.91 381.723 154.91Z" fill="#FFC709" stroke="black" stroke-width="1.32077" stroke-linejoin="round"/>
<path fill-rule="evenodd" clip-rule="evenodd" d="M371.681 146.111C371.681 146.111 350.204 146.019 353.986 158.496C361.356 167.811 371.681 146.111 371.681 146.111Z" fill="#FFC709" stroke="black" stroke-width="1.34243" stroke-linejoin="round"/>
<path fill-rule="evenodd" clip-rule="evenodd" d="M370.854 167.222C370.854 167.222 350.578 177.793 348.562 165.081C351.36 153.369 370.854 167.222 370.854 167.222Z" fill="#FFC709" stroke="black" stroke-width="1.37062" stroke-linejoin="round"/>
<path fill-rule="evenodd" clip-rule="evenodd" d="M357.043 147.659C357.043 147.659 334.719 153.365 341.78 164.092C351.773 170.874 357.043 147.659 357.043 147.659Z" fill="#FFC709" stroke="black" stroke-width="1.37233" stroke-linejoin="round"/>
<path fill-rule="evenodd" clip-rule="evenodd" d="M356.786 171.643C356.786 171.643 336.486 183.025 334.273 169.73C336.928 157.413 356.786 171.643 356.786 171.643Z" fill="#FFC709" stroke="black" stroke-width="1.40988" stroke-linejoin="round"/>
<path fill-rule="evenodd" clip-rule="evenodd" d="M344.028 178.199C344.028 178.199 324.982 189.185 322.58 176.963C324.829 165.528 344.028 178.199 344.028 178.199Z" fill="#FFC709" stroke="black" stroke-width="1.3209" stroke-linejoin="round"/>
<path fill-rule="evenodd" clip-rule="evenodd" d="M342.74 151.486C342.74 151.486 319.493 160.374 328.295 171.397C339.781 177.724 342.74 151.486 342.74 151.486Z" fill="#FFC709" stroke="black" stroke-width="1.50056" stroke-linejoin="round"/>
<path fill-rule="evenodd" clip-rule="evenodd" d="M327.027 159.796C327.027 159.796 306.626 171.65 316.742 180.147C328.604 183.964 327.027 159.796 327.027 159.796Z" fill="#FFC709" stroke="black" stroke-width="1.40518" stroke-linejoin="round"/>
<path fill-rule="evenodd" clip-rule="evenodd" d="M332.578 184.015C332.578 184.015 315.206 197.283 311.568 185.187C312.54 173.363 332.578 184.015 332.578 184.015Z" fill="#FFC709" stroke="black" stroke-width="1.31972" stroke-linejoin="round"/>
<path fill-rule="evenodd" clip-rule="evenodd" d="M313.699 167.376C313.699 167.376 294.587 181.26 305.506 188.826C317.693 191.519 313.699 167.376 313.699 167.376Z" fill="#FFC709" stroke="black" stroke-width="1.41213" stroke-linejoin="round"/>
<path fill-rule="evenodd" clip-rule="evenodd" d="M302.367 174.943C302.367 174.943 285.157 189.347 296.017 195.824C307.755 197.596 302.367 174.943 302.367 174.943Z" fill="#FFC709" stroke="black" stroke-width="1.34296" stroke-linejoin="round"/>
<path fill-rule="evenodd" clip-rule="evenodd" d="M322.302 190.816C322.302 190.816 306.119 206.575 300.522 195.219C299.782 183.417 322.302 190.816 322.302 190.816Z" fill="#FFC709" stroke="black" stroke-width="1.35317" stroke-linejoin="round"/>
<path fill-rule="evenodd" clip-rule="evenodd" d="M266.762 392.024C266.762 392.024 282.182 409.609 290.09 398.972C292.712 387.319 266.762 392.024 266.762 392.024Z" fill="#FFC709" stroke="black" stroke-width="1.43122" stroke-linejoin="round"/>
<path fill-rule="evenodd" clip-rule="evenodd" d="M274.29 401.883C274.29 401.883 291.231 420.816 298.411 408.5C300.167 395.311 274.29 401.883 274.29 401.883Z" fill="#FFC709" stroke="black" stroke-width="1.52304" stroke-linejoin="round"/>
<path fill-rule="evenodd" clip-rule="evenodd" d="M285.408 411.889C285.408 411.889 300.308 427.353 305.901 416.656C306.909 405.407 285.408 411.889 285.408 411.889Z" fill="#FFC709" stroke="black" stroke-width="1.28657" stroke-linejoin="round"/>
<path fill-rule="evenodd" clip-rule="evenodd" d="M298.231 373.388C298.231 373.388 312.572 389.372 301.492 394.169C290.197 394.354 298.231 373.388 298.231 373.388Z" fill="#FFC709" stroke="black" stroke-width="1.28657" stroke-linejoin="round"/>
<path fill-rule="evenodd" clip-rule="evenodd" d="M286.416 391.304C286.416 391.304 297.314 410.965 305.738 401.585C309.703 390.428 286.416 391.304 286.416 391.304Z" fill="#FFC709" stroke="black" stroke-width="1.34282" stroke-linejoin="round"/>
<path fill-rule="evenodd" clip-rule="evenodd" d="M305.61 387.555C305.61 387.555 318.759 404.531 325.471 394.497C327.683 383.422 305.61 387.555 305.61 387.555Z" fill="#FFC709" stroke="black" stroke-width="1.28657" stroke-linejoin="round"/>
<path fill-rule="evenodd" clip-rule="evenodd" d="M305.657 382.594C305.657 382.594 321.729 397.767 310.852 403.716C299.34 404.93 305.657 382.594 305.657 382.594Z" fill="#FFC709" stroke="black" stroke-width="1.32468" stroke-linejoin="round"/>
<path fill-rule="evenodd" clip-rule="evenodd" d="M294.604 404.143C294.604 404.143 309.403 420.963 315.823 410.152C317.467 398.532 294.604 404.143 294.604 404.143Z" fill="#FFC709" stroke="black" stroke-width="1.34313" stroke-linejoin="round"/>
<path fill-rule="evenodd" clip-rule="evenodd" d="M323.804 374.678C323.804 374.678 339.439 388.373 330.037 394.507C319.718 396.174 323.804 374.678 323.804 374.678Z" fill="#FFC709" stroke="black" stroke-width="1.23114" stroke-linejoin="round"/>
<path fill-rule="evenodd" clip-rule="evenodd" d="M314.356 394.641C314.356 394.641 327.99 409.983 333.747 399.989C335.146 389.29 314.356 394.641 314.356 394.641Z" fill="#FFC709" stroke="black" stroke-width="1.2296" stroke-linejoin="round"/>
<path fill-rule="evenodd" clip-rule="evenodd" d="M333.264 381.925C333.264 381.925 347.822 394.793 338.185 400.166C327.92 401.441 333.264 381.925 333.264 381.925Z" fill="#FFC709" stroke="black" stroke-width="1.16686" stroke-linejoin="round"/>
<path fill-rule="evenodd" clip-rule="evenodd" d="M321.033 402.3C321.033 402.3 337.336 416.278 341.886 405.096C341.819 393.803 321.033 402.3 321.033 402.3Z" fill="#FFC709" stroke="black" stroke-width="1.28657" stroke-linejoin="round"/>
<path fill-rule="evenodd" clip-rule="evenodd" d="M314.473 391.885C314.473 391.885 332.451 405.078 322.198 412.292C310.748 414.869 314.473 391.885 314.473 391.885Z" fill="#FFC709" stroke="black" stroke-width="1.33555" stroke-linejoin="round"/>
<path fill-rule="evenodd" clip-rule="evenodd" d="M324.8 400.61C324.8 400.61 341.938 413.551 331.983 420.381C320.933 422.725 324.8 400.61 324.8 400.61Z" fill="#FFC709" stroke="black" stroke-width="1.28657" stroke-linejoin="round"/>
<path fill-rule="evenodd" clip-rule="evenodd" d="M342.432 391.05C342.432 391.05 357.525 406.326 346.689 411.65C335.416 412.378 342.432 391.05 342.432 391.05Z" fill="#FFC709" stroke="black" stroke-width="1.28657" stroke-linejoin="round"/>
<path fill-rule="evenodd" clip-rule="evenodd" d="M246.976 231.864C246.976 231.864 239.385 252.868 252.174 253.113C263.311 248.842 246.976 231.864 246.976 231.864Z" fill="#FFC709" stroke="black" stroke-width="1.34946" stroke-linejoin="round"/>
<path fill-rule="evenodd" clip-rule="evenodd" d="M242.57 244.346C242.57 244.346 236.582 266.012 249.476 265.321C260.351 260.213 242.57 244.346 242.57 244.346Z" fill="#FFC709" stroke="black" stroke-width="1.36121" stroke-linejoin="round"/>
<path fill-rule="evenodd" clip-rule="evenodd" d="M238.997 256.974C238.997 256.974 234.166 278.621 247.744 277.191C258.884 271.536 238.997 256.974 238.997 256.974Z" fill="#FFC709" stroke="black" stroke-width="1.39111" stroke-linejoin="round"/>
<path fill-rule="evenodd" clip-rule="evenodd" d="M236.795 269.621C236.795 269.621 234.259 293.197 246.886 290.359C256.831 283.247 236.795 269.621 236.795 269.621Z" fill="#FFC709" stroke="black" stroke-width="1.39847" stroke-linejoin="round"/>
<path fill-rule="evenodd" clip-rule="evenodd" d="M235.468 282.651C235.468 282.651 233.785 305.151 246.369 302.02C256.1 294.917 235.468 282.651 235.468 282.651Z" fill="#FFC709" stroke="black" stroke-width="1.36771" stroke-linejoin="round"/>
<path fill-rule="evenodd" clip-rule="evenodd" d="M269.581 220.245C269.581 220.245 254.36 238.671 267.588 242.975C280.67 242.275 269.581 220.245 269.581 220.245Z" fill="#FFC709" stroke="black" stroke-width="1.4445" stroke-linejoin="round"/>
<path fill-rule="evenodd" clip-rule="evenodd" d="M283.782 236.369C283.782 236.369 276.731 257.751 266.488 250.212C260.353 240.063 283.782 236.369 283.782 236.369Z" fill="#FFC709" stroke="black" stroke-width="1.35358" stroke-linejoin="round"/>
<path fill-rule="evenodd" clip-rule="evenodd" d="M259.924 234.214C259.924 234.214 249.389 254.357 262.292 256.244C274.138 253.379 259.924 234.214 259.924 234.214Z" fill="#FFC709" stroke="black" stroke-width="1.37259" stroke-linejoin="round"/>
<path fill-rule="evenodd" clip-rule="evenodd" d="M283.805 240.262C283.805 240.262 271.043 256.879 282.669 259.658C294.036 258.205 283.805 240.262 283.805 240.262Z" fill="#FFC709" stroke="black" stroke-width="1.24347" stroke-linejoin="round"/>
<path fill-rule="evenodd" clip-rule="evenodd" d="M296.996 252.578C296.996 252.578 291.6 271.171 283.27 264.75C278.209 256.025 296.996 252.578 296.996 252.578Z" fill="#FFC709" stroke="black" stroke-width="1.12968" stroke-linejoin="round"/>
<path fill-rule="evenodd" clip-rule="evenodd" d="M277.359 251.872C277.359 251.872 269.066 270.212 279.797 270.939C289.549 267.592 277.359 251.872 277.359 251.872Z" fill="#FFC709" stroke="black" stroke-width="1.16849" stroke-linejoin="round"/>
<path fill-rule="evenodd" clip-rule="evenodd" d="M279.515 248.483C279.515 248.483 273.55 270.032 263.237 262.99C256.819 253.175 279.515 248.483 279.515 248.483Z" fill="#FFC709" stroke="black" stroke-width="1.33372" stroke-linejoin="round"/>
<path fill-rule="evenodd" clip-rule="evenodd" d="M253.472 248.406C253.472 248.406 246.608 271.335 260.282 270.846C271.924 265.621 253.472 248.406 253.472 248.406Z" fill="#FFC709" stroke="black" stroke-width="1.44505" stroke-linejoin="round"/>
<path fill-rule="evenodd" clip-rule="evenodd" d="M293.436 262.703C293.436 262.703 289.91 280.709 280.745 275.649C274.665 268.063 293.436 262.703 293.436 262.703Z" fill="#FFC709" stroke="black" stroke-width="1.10951" stroke-linejoin="round"/>
<path fill-rule="evenodd" clip-rule="evenodd" d="M274.162 264.232C274.162 264.232 267.174 281.541 278.142 281.58C287.795 277.94 274.162 264.232 274.162 264.232Z" fill="#FFC709" stroke="black" stroke-width="1.13299" stroke-linejoin="round"/>
<path fill-rule="evenodd" clip-rule="evenodd" d="M275.221 259.784C275.221 259.784 272.975 282.299 261.293 277.091C253.067 268.437 275.221 259.784 275.221 259.784Z" fill="#FFC709" stroke="black" stroke-width="1.35988" stroke-linejoin="round"/>
<path fill-rule="evenodd" clip-rule="evenodd" d="M249.172 262.216C249.172 262.216 245.2 286.439 257.937 284.399C268.269 277.744 249.172 262.216 249.172 262.216Z" fill="#FFC709" stroke="black" stroke-width="1.4228" stroke-linejoin="round"/>
<path fill-rule="evenodd" clip-rule="evenodd" d="M291.389 271.853C291.389 271.853 288.871 291.579 279.411 286.655C272.898 278.804 291.389 271.853 291.389 271.853Z" fill="#FFC709" stroke="black" stroke-width="1.15745" stroke-linejoin="round"/>
<path fill-rule="evenodd" clip-rule="evenodd" d="M271.833 276.389C271.833 276.389 266.647 294.536 277.486 293.653C286.66 289.148 271.833 276.389 271.833 276.389Z" fill="#FFC709" stroke="black" stroke-width="1.13784" stroke-linejoin="round"/>
<path fill-rule="evenodd" clip-rule="evenodd" d="M272.548 272.727C272.548 272.727 271.872 295.22 260.03 290.855C251.352 282.834 272.548 272.727 272.548 272.727Z" fill="#FFC709" stroke="black" stroke-width="1.34645" stroke-linejoin="round"/>
<path fill-rule="evenodd" clip-rule="evenodd" d="M246.908 277.199C246.908 277.199 246.514 301.093 258.806 297.056C268.047 288.983 246.908 277.199 246.908 277.199Z" fill="#FFC709" stroke="black" stroke-width="1.40235" stroke-linejoin="round"/>
<path fill-rule="evenodd" clip-rule="evenodd" d="M234.181 294.514C234.181 294.514 234.75 317.392 246.736 313.01C255.544 304.894 234.181 294.514 234.181 294.514Z" fill="#FFC709" stroke="black" stroke-width="1.36481" stroke-linejoin="round"/>
<path fill-rule="evenodd" clip-rule="evenodd" d="M289.261 282.549C289.261 282.549 289.835 301.561 279.381 298.548C271.472 292.273 289.261 282.549 289.261 282.549Z" fill="#FFC709" stroke="black" stroke-width="1.15162" stroke-linejoin="round"/>
<path fill-rule="evenodd" clip-rule="evenodd" d="M269.481 289.446C269.481 289.446 267.142 309.299 278.653 306.454C287.725 300.126 269.481 289.446 269.481 289.446Z" fill="#FFC709" stroke="black" stroke-width="1.22344" stroke-linejoin="round"/>
<path fill-rule="evenodd" clip-rule="evenodd" d="M271.719 284.529C271.719 284.529 272.794 307.324 260.748 303.886C251.546 296.492 271.719 284.529 271.719 284.529Z" fill="#FFC709" stroke="black" stroke-width="1.3505" stroke-linejoin="round"/>
<path fill-rule="evenodd" clip-rule="evenodd" d="M245.349 290.953C245.349 290.953 247.126 313.764 258.585 308.722C266.745 300.129 245.349 290.953 245.349 290.953Z" fill="#FFC709" stroke="black" stroke-width="1.34905" stroke-linejoin="round"/>
<path fill-rule="evenodd" clip-rule="evenodd" d="M288.758 293.287C288.758 293.287 291.394 312.362 280.699 310.282C272.171 304.688 288.758 293.287 288.758 293.287Z" fill="#FFC709" stroke="black" stroke-width="1.15611" stroke-linejoin="round"/>
<path fill-rule="evenodd" clip-rule="evenodd" d="M269.984 301.463C269.984 301.463 269.097 321.324 279.048 317.773C286.649 310.918 269.984 301.463 269.984 301.463Z" fill="#FFC709" stroke="black" stroke-width="1.14437" stroke-linejoin="round"/>
<path fill-rule="evenodd" clip-rule="evenodd" d="M289.366 303.88C289.366 303.88 292.415 322.27 281.583 319.981C272.866 314.376 289.366 303.88 289.366 303.88Z" fill="#FFC709" stroke="black" stroke-width="1.13926" stroke-linejoin="round"/>
<path fill-rule="evenodd" clip-rule="evenodd" d="M234.288 307.989C234.288 307.989 237.452 329.227 248.215 323.757C255.562 315.179 234.288 307.989 234.288 307.989Z" fill="#FFC709" stroke="black" stroke-width="1.28657" stroke-linejoin="round"/>
<path fill-rule="evenodd" clip-rule="evenodd" d="M275.197 352.196C275.197 352.196 263.177 352.346 255.16 349.805C244.635 346.928 240.443 337.204 240.443 337.204C240.443 337.204 238.9 339.43 238.996 342.598C239.092 345.478 241.15 352.124 246.317 359.161C251.676 367.829 255.323 378.05 259.645 384.762C263.101 390.803 270.397 396.268 270.397 396.268C270.397 396.268 293.614 393.493 295.86 393.014C298.851 392.557 319.365 387.83 323.969 387.575C328.572 387.319 339.026 387.99 339.026 387.99C339.026 387.99 335.346 381.214 333.57 379.904C330.018 376.962 325.724 375.763 321.281 371.466C318.854 368.802 314.762 364.084 312.46 361.527C309.582 358.778 307.41 356.071 304.276 354.308C301.719 352.641 275.197 352.196 275.197 352.196Z" fill="black" stroke="black" stroke-width="0.639297"/>
<path fill-rule="evenodd" clip-rule="evenodd" d="M327.673 376.505C327.673 376.505 319.139 376.722 315.03 377.248C310.49 377.967 300.73 379.146 292.895 379.949C285.856 380.726 279.893 381.179 271.949 381.263L257.521 380.603C257.981 381.459 259.267 383.765 260.543 385.599C262.078 387.949 263.284 389.513 266.093 392.128C268.397 394.31 269.821 395.444 270.48 395.949C272.209 395.757 283.124 394.449 287.531 393.839C294.782 393.134 298.461 392.163 306.81 390.395C311.174 389.506 321.289 387.378 323.921 387.233C326.889 386.992 337.443 387.549 338.547 387.645C337.645 386.164 336.752 384.678 335.868 383.188C334.232 380.423 332.965 379.711 330.663 378.172C329.752 377.578 327.748 376.536 327.673 376.505Z" fill="#FFC709"/>
<path fill-rule="evenodd" clip-rule="evenodd" d="M248.939 363.063C249.611 364.311 251.384 367.886 252.966 371.083C254.993 375.464 256.109 377.851 257.589 380.726C260.806 380.966 263.944 381.058 271.952 381.313C279.896 381.23 285.855 380.775 292.894 380C300.729 379.201 310.493 378.028 315.034 377.312C319.142 376.788 327.805 376.58 327.805 376.58C327.805 376.58 323.957 374.255 322.166 372.721C319.944 370.659 318.924 369.187 317.112 367.279C314.76 367.087 311.485 367.072 307.905 366.816C301.636 366.464 292 367.12 286.63 367.12C281.259 367.12 272.179 366.936 264.522 366.046C254.129 365.299 251.627 363.591 248.939 363.063Z" fill="#DD0000"/>
<path d="M240.284 339.358C241.875 341.821 243.478 344.331 246.04 346.421C250.387 349.524 251.508 350.14 259.908 352.11C267.476 353.309 269.18 352.977 279.27 353.288C289.104 353.59 291.944 353.819 298.305 354.334C301.381 354.583 302.41 354.841 303.735 355.053" stroke="#FFC709" stroke-width="1.02287" stroke-linecap="round"/>
<path fill-rule="evenodd" clip-rule="evenodd" d="M494.745 422.574L540.697 371.199L558.732 306.733L552.309 247.207L522.909 190.151L477.451 155.078L450.275 144.951L442.616 156.066L429.275 160.018L436.934 166.44L437.922 182.988L484.369 213.369L512.533 260.298L515.251 313.155L501.169 359.096L447.31 410.471L494.745 422.574Z" fill="#FFC709"/>
<path fill-rule="evenodd" clip-rule="evenodd" d="M551.597 348.567C551.597 348.567 549.598 354.434 544.988 361.446C539.888 368.73 536.317 368.292 536.317 368.292C536.317 368.292 530.843 369.103 530.215 364.828C530.068 360.568 532.997 359.132 533 359.037C532.997 359.133 536.216 356.835 540.333 355.153C543.889 352.972 543.665 353.011 545.771 350.295C547.123 347.171 546.666 349.362 550.142 337.089C553.618 324.816 555.124 317.969 555.22 317.972L559.586 318.98L555.011 336.867L553.415 342.96L551.597 348.567Z" fill="#FFC709" stroke="black" stroke-width="1.27859" stroke-linejoin="round"/>
<path fill-rule="evenodd" clip-rule="evenodd" d="M554.052 306.688L544.547 338.478C544.547 338.478 543.422 341.928 542.738 345.467C542.701 349.701 543.452 351.391 543.452 351.391C543.548 351.394 543.904 353.647 544.108 355.957C544.186 359.127 542.775 361.281 542.778 361.185C542.775 361.281 541.696 362.841 538.585 363.017C535.009 362.792 534.56 360.217 534.56 360.217C534.56 360.217 534.017 359.941 534.294 356.369C534.572 352.798 536.564 347.241 536.564 347.241L550.14 304.338L554.052 306.688Z" fill="#FFC709" stroke="black" stroke-width="1.27859" stroke-linejoin="round"/>
<path fill-rule="evenodd" clip-rule="evenodd" d="M559.879 298.885L551.527 330.997C551.527 330.997 550.527 334.486 549.971 338.047C550.087 342.28 550.899 343.941 550.899 343.941C550.995 343.941 551.431 346.179 551.719 348.481C551.911 351.646 550.578 353.849 550.578 353.753C550.578 353.849 549.556 355.447 546.454 355.735C542.872 355.639 542.331 353.082 542.331 353.082C542.331 353.082 541.777 352.826 541.926 349.247C542.075 345.667 543.865 340.042 543.865 340.042L555.885 296.678L559.879 298.885Z" fill="#FFC709" stroke="black" stroke-width="1.27859" stroke-linejoin="round"/>
<path fill-rule="evenodd" clip-rule="evenodd" d="M556.954 346.052C556.954 346.052 555.032 351.945 550.513 359.017C545.508 366.366 541.933 365.974 541.933 365.974C541.933 365.974 536.469 366.857 535.786 362.59C535.583 358.333 538.493 356.859 538.495 356.763C538.493 356.859 541.682 354.52 545.777 352.784C549.305 350.557 549.081 350.599 551.152 347.856C552.463 344.714 552.035 346.912 555.351 334.595C558.667 322.278 560.084 315.411 560.18 315.413L564.559 316.364L560.216 334.309L558.699 340.423L556.954 346.052Z" fill="#FFC709" stroke="black" stroke-width="1.27859" stroke-linejoin="round"/>
<path fill-rule="evenodd" clip-rule="evenodd" d="M540.262 326.992C540.262 326.992 538.666 332.85 534.79 339.922C530.488 347.279 527.314 346.964 527.314 346.964C527.314 346.964 522.491 347.944 521.809 343.744C521.553 339.544 524.105 338.031 524.105 337.936C524.105 338.031 526.887 335.658 530.483 333.862C533.568 331.593 533.37 331.639 535.155 328.889C536.26 325.76 535.92 327.939 538.636 315.71C541.353 303.481 542.485 296.673 542.57 296.673L546.465 297.525L542.941 315.331L541.707 321.398L540.262 326.992Z" fill="#FFC709" stroke="black" stroke-width="1.19599" stroke-linejoin="round"/>
<path fill-rule="evenodd" clip-rule="evenodd" d="M535.711 327.752C535.711 327.752 533.907 333.683 529.53 340.843C524.674 348.291 521.091 347.971 521.091 347.971C521.091 347.971 515.646 348.962 514.878 344.709C514.589 340.457 517.47 338.925 517.47 338.829C517.47 338.926 520.611 336.523 524.67 334.706C528.153 332.409 527.93 332.455 529.946 329.672C531.194 326.504 530.809 328.71 533.878 316.329C536.947 303.948 538.227 297.055 538.323 297.055L542.72 297.918L538.737 315.946L537.343 322.089L535.711 327.752Z" fill="#FFC709" stroke="black" stroke-width="1.27859" stroke-linejoin="round"/>
<path fill-rule="evenodd" clip-rule="evenodd" d="M540.443 294.545L532.09 326.657C532.09 326.657 531.09 330.146 530.534 333.707C530.65 337.939 531.462 339.601 531.462 339.601C531.558 339.601 531.994 341.839 532.282 344.14C532.474 347.305 531.141 349.509 531.141 349.413C531.141 349.509 530.119 351.107 527.017 351.395C523.435 351.299 522.894 348.742 522.894 348.742C522.894 348.742 522.341 348.486 522.489 344.907C522.638 341.327 524.428 335.702 524.428 335.702L536.449 292.338L540.443 294.545Z" fill="#FFC709" stroke="black" stroke-width="1.27859" stroke-linejoin="round"/>
<path fill-rule="evenodd" clip-rule="evenodd" d="M524.767 304.416L514.474 335.96C514.474 335.96 513.264 339.381 512.492 342.902C512.35 347.134 513.059 348.842 513.059 348.842C513.155 348.848 513.454 351.108 513.601 353.423C513.6 356.594 512.136 358.712 512.142 358.616C512.136 358.712 511.018 360.245 507.904 360.343C504.335 360.03 503.95 357.444 503.95 357.444C503.95 357.444 503.414 357.156 503.78 353.592C504.147 350.028 506.276 344.522 506.276 344.522L520.914 301.97L524.767 304.416Z" fill="#FFC709" stroke="black" stroke-width="1.27859" stroke-linejoin="round"/>
<path fill-rule="evenodd" clip-rule="evenodd" d="M519.252 346.071C519.252 346.071 517.269 351.944 512.677 358.969C507.597 366.266 504.025 365.838 504.025 365.838C504.025 365.838 498.553 366.663 497.914 362.39C497.755 358.131 500.68 356.687 500.683 356.591C500.68 356.687 503.893 354.381 508.005 352.688C511.556 350.497 511.331 350.537 513.431 347.815C514.774 344.687 514.323 346.88 517.766 334.598C521.209 322.315 522.696 315.464 522.792 315.467L527.161 316.463L522.634 334.362L521.054 340.46L519.252 346.071Z" fill="#FFC709" stroke="black" stroke-width="1.27859" stroke-linejoin="round"/>
<path fill-rule="evenodd" clip-rule="evenodd" d="M542.295 335.167C542.295 335.167 540.491 341.097 536.114 348.258C531.257 355.706 527.674 355.385 527.674 355.385C527.674 355.385 522.229 356.377 521.461 352.124C521.173 347.872 524.053 346.34 524.053 346.244C524.053 346.341 527.195 343.938 531.254 342.121C534.737 339.824 534.513 339.87 536.53 337.087C537.778 333.919 537.393 336.125 540.462 323.744C543.531 311.363 544.81 304.47 544.906 304.47L549.303 305.333L545.321 323.361L543.927 329.504L542.295 335.167Z" fill="#FFC709" stroke="black" stroke-width="1.27859" stroke-linejoin="round"/>
<path fill-rule="evenodd" clip-rule="evenodd" d="M547.186 331.752C547.186 331.752 545.382 337.682 541.006 344.842C536.149 352.29 532.566 351.97 532.566 351.97C532.566 351.97 527.121 352.962 526.353 348.709C526.065 344.457 528.945 342.925 528.945 342.829C528.945 342.925 532.087 340.523 536.146 338.706C539.628 336.409 539.405 336.455 541.421 333.672C542.669 330.504 542.285 332.71 545.354 320.329C548.423 307.948 549.702 301.055 549.798 301.055L554.195 301.918L550.213 319.946L548.818 326.089L547.186 331.752Z" fill="#FFC709" stroke="black" stroke-width="1.27859" stroke-linejoin="round"/>
<path fill-rule="evenodd" clip-rule="evenodd" d="M535.281 297.582L526.929 329.693C526.929 329.693 525.929 333.182 525.373 336.743C525.489 340.976 526.301 342.637 526.301 342.637C526.397 342.637 526.833 344.876 527.121 347.177C527.313 350.342 525.98 352.545 525.98 352.449C525.98 352.546 524.958 354.143 521.856 354.431C518.274 354.335 517.733 351.778 517.733 351.778C517.733 351.778 517.179 351.523 517.328 347.943C517.477 344.363 519.267 338.738 519.267 338.738L531.287 295.374L535.281 297.582Z" fill="#FFC709" stroke="black" stroke-width="1.27859" stroke-linejoin="round"/>
<path fill-rule="evenodd" clip-rule="evenodd" d="M513.703 347.643C513.703 347.643 511.464 353.423 506.568 360.239C501.172 367.306 497.623 366.721 497.623 366.721C497.623 366.721 492.119 367.306 491.669 363.009C491.697 358.747 494.683 357.433 494.69 357.337C494.683 357.433 497.994 355.27 502.177 353.759C505.82 351.727 505.594 351.756 507.811 349.13C509.291 346.064 508.744 348.235 512.723 336.115C516.702 323.996 518.489 317.217 518.585 317.224L522.906 318.411L517.597 336.094L515.751 342.116L513.703 347.643Z" fill="#FFC709" stroke="black" stroke-width="1.27859" stroke-linejoin="round"/>
<path fill-rule="evenodd" clip-rule="evenodd" d="M518.628 310.707L507.151 341.374C507.151 341.374 505.812 344.693 504.908 348.145C504.605 352.359 505.248 354.121 505.248 354.121C505.344 354.135 505.556 356.416 505.615 358.739C505.494 361.904 503.951 363.902 503.961 363.806C503.951 363.902 502.777 365.342 499.664 365.191C496.111 364.591 495.826 361.979 495.826 361.979C495.826 361.979 495.301 358.576 496.282 355.239C497.071 351.039 504.591 337.266 507.568 327.956L514.202 307.667L518.628 310.707Z" fill="#FFC709" stroke="black" stroke-width="1.27859" stroke-linejoin="round"/>
<path fill-rule="evenodd" clip-rule="evenodd" d="M523.313 192.92C523.313 192.92 527.625 197.797 533.581 207.692C539.346 217.396 539.591 217.793 542.277 225.079C544.195 232.174 544.213 234.572 542.884 238.535C541.17 241.73 539.492 242.402 537.929 242.466C536.366 242.53 535.563 242.101 534.413 240.336C532.112 235.115 535.013 232.494 535.883 228.147C536.754 223.801 536.393 227.142 536.395 223.923C535.916 219.648 534.573 218.528 533.997 217.376C533.133 215.745 532.525 214.516 527.699 207.318C522.682 199.639 520.283 195.419 520.283 195.419C520.283 195.419 519.754 193.703 520.912 192.863C522.024 192.056 523.313 192.92 523.313 192.92Z" fill="#FFC709" stroke="black" stroke-width="1.27859"/>
<path fill-rule="evenodd" clip-rule="evenodd" d="M526.518 191.386C526.518 191.386 530.831 196.263 536.787 206.158C542.552 215.862 542.796 216.258 545.483 223.545C547.401 230.64 547.419 233.038 546.09 237.001C544.376 240.195 542.698 240.868 541.135 240.932C539.572 240.996 538.769 240.567 537.619 238.802C535.317 233.581 538.219 230.96 539.089 226.613C539.959 222.267 539.599 225.608 539.601 222.389C539.122 218.113 537.779 216.994 537.203 215.842C536.339 214.21 535.731 212.982 530.905 205.783C525.888 198.105 523.489 193.885 523.489 193.885C523.489 193.885 522.959 192.169 524.118 191.328C525.23 190.522 526.518 191.386 526.518 191.386Z" fill="#FFC709" stroke="black" stroke-width="1.27859"/>
<path fill-rule="evenodd" clip-rule="evenodd" d="M499.83 183.651C499.83 183.651 504.739 187.928 511.93 196.966C518.905 205.839 519.199 206.201 522.809 213.078C525.632 219.863 525.962 222.239 525.158 226.34C523.873 229.731 522.297 230.615 520.755 230.882C519.213 231.148 518.362 230.827 516.993 229.225C514.032 224.347 516.569 221.372 516.868 216.95C517.166 212.527 517.243 215.886 516.826 212.694C515.797 208.517 514.32 207.582 513.599 206.514C512.53 205.008 511.768 203.869 506.049 197.358C500.077 190.395 497.15 186.523 497.15 186.523C497.15 186.523 496.403 184.89 497.442 183.906C498.44 182.962 499.83 183.651 499.83 183.651Z" fill="#FFC709" stroke="black" stroke-width="1.27859"/>
<path fill-rule="evenodd" clip-rule="evenodd" d="M514.906 183.664C514.906 183.664 522.578 196.208 525.355 201.011C528.74 206.293 531.833 213.759 534.779 217.717C538.337 221.474 541.887 222.094 544.377 224.497C547.232 227.052 547.758 228.291 547.893 230.444C547.82 233.343 544.977 235.441 542.123 234.503C539.279 234.148 536.128 229.586 536.128 229.586C536.128 229.586 532.064 221.882 529.259 216.579C523.163 203.997 510.954 185.445 510.954 185.445L514.906 183.664Z" fill="#FFC709" stroke="black" stroke-width="1.27859"/>
<path fill-rule="evenodd" clip-rule="evenodd" d="M530.481 191.519C530.481 191.519 534.794 196.397 540.75 206.292C546.514 215.995 546.759 216.392 549.445 223.679C551.364 230.774 551.382 233.172 550.052 237.134C548.338 240.329 546.66 241.002 545.098 241.066C543.534 241.129 542.731 240.701 541.582 238.935C539.28 233.714 542.181 231.094 543.052 226.747C543.922 222.4 543.561 225.741 543.563 222.522C543.085 218.247 541.742 217.128 541.165 215.976C540.301 214.344 539.693 213.116 534.868 205.917C529.85 198.238 527.451 194.019 527.451 194.019C527.451 194.019 526.922 192.303 528.081 191.462C529.192 190.656 530.481 191.519 530.481 191.519Z" fill="#FFC709" stroke="black" stroke-width="1.27859"/>
<path fill-rule="evenodd" clip-rule="evenodd" d="M491.33 185.349C491.33 185.349 500.754 196.637 504.203 200.983C508.323 205.714 512.474 212.647 515.967 216.133C520.036 219.33 523.639 219.424 526.453 221.438C529.651 223.549 530.353 224.698 530.801 226.808C531.152 229.686 528.647 232.177 525.686 231.666C522.82 231.731 519.036 227.677 519.036 227.677C519.036 227.677 513.89 220.65 510.341 215.813C502.471 204.257 487.682 187.688 487.682 187.688L491.33 185.349Z" fill="#FFC709" stroke="black" stroke-width="1.27859"/>
<path fill-rule="evenodd" clip-rule="evenodd" d="M496.734 186.175C496.734 186.175 501.588 190.515 508.661 199.645C515.522 208.608 515.811 208.973 519.332 215.896C522.067 222.717 522.366 225.097 521.509 229.188C520.18 232.561 518.593 233.425 517.048 233.672C515.503 233.918 514.655 233.586 513.307 231.967C510.41 227.051 512.985 224.109 513.341 219.691C513.697 215.272 513.729 218.632 513.354 215.435C512.379 211.245 510.914 210.291 510.207 209.214C509.158 207.695 508.41 206.546 502.776 199.961C496.894 192.922 494.018 189.012 494.018 189.012C494.018 189.012 493.291 187.37 494.344 186.399C495.354 185.468 496.734 186.175 496.734 186.175Z" fill="#FFC709" stroke="black" stroke-width="1.27859"/>
<path fill-rule="evenodd" clip-rule="evenodd" d="M487.735 186.988C487.735 186.988 497.159 198.276 500.608 202.623C504.728 207.353 508.879 214.287 512.372 217.772C516.441 220.969 520.044 221.064 522.858 223.078C526.056 225.188 526.758 226.337 527.206 228.447C527.557 231.325 525.052 233.816 522.091 233.305C519.225 233.37 515.441 229.316 515.441 229.316C515.441 229.316 510.295 222.289 506.746 217.453C498.876 205.897 484.087 189.327 484.087 189.327L487.735 186.988Z" fill="#FFC709" stroke="black" stroke-width="1.27859"/>
<path fill-rule="evenodd" clip-rule="evenodd" d="M504.52 181.615C504.52 181.615 509.392 185.935 516.501 195.037C523.398 203.971 523.689 204.336 527.237 211.244C530 218.055 530.308 220.433 529.468 224.527C528.153 227.906 526.569 228.777 525.025 229.029C523.481 229.281 522.632 228.953 521.278 227.34C518.361 222.435 520.924 219.483 521.262 215.063C521.6 210.643 521.646 214.003 521.258 210.807C520.266 206.622 518.797 205.673 518.086 204.599C517.031 203.084 516.278 201.938 510.617 195.376C504.707 188.36 501.815 184.462 501.815 184.462C501.815 184.462 501.082 182.823 502.131 181.848C503.137 180.913 504.52 181.615 504.52 181.615Z" fill="#FFC709" stroke="black" stroke-width="1.27859"/>
<path fill-rule="evenodd" clip-rule="evenodd" d="M486.702 192.191C486.702 192.191 496.126 203.48 499.574 207.826C503.695 212.557 507.846 219.49 511.339 222.976C515.408 226.173 519.01 226.267 521.825 228.281C525.022 230.391 525.724 231.541 526.172 233.651C526.524 236.529 524.018 239.02 521.057 238.509C518.192 238.573 514.408 234.52 514.408 234.52C514.408 234.52 509.262 227.493 505.712 222.656C497.842 211.1 483.053 194.531 483.053 194.531L486.702 192.191Z" fill="#FFC709" stroke="black" stroke-width="1.27859"/>
<path fill-rule="evenodd" clip-rule="evenodd" d="M489.573 201.348C489.573 201.348 499.398 213.584 502.982 218.287C507.289 223.423 511.513 230.867 515.192 234.67C519.522 238.197 523.501 238.453 526.506 240.685C529.931 243.035 530.646 244.27 531.03 246.5C531.267 249.53 528.366 252.031 525.119 251.366C521.947 251.309 517.977 246.898 517.977 246.898C517.977 246.898 512.657 239.313 508.987 234.091C500.894 221.642 485.416 203.639 485.416 203.639L489.573 201.348Z" fill="#FFC709" stroke="black" stroke-width="1.3775"/>
<path fill-rule="evenodd" clip-rule="evenodd" d="M486.604 211.436C486.604 211.436 487.965 213.078 499.47 227.844C509.99 244.006 511.589 247.05 511.589 247.05C511.589 247.05 513.284 250.172 514.999 251.107C516.713 252.043 519.636 251.94 520.515 251.27C521.352 250.631 521.821 250.531 522.108 247.411C521.788 245.571 521.252 244.838 520.486 244.148C518.93 242.969 518.134 242.771 516.223 242.165C514.334 241.185 513.607 240.242 512.321 238.492C509.777 234.484 508.641 232.525 504.368 226.685C498.829 218.967 494.473 214.264 489.412 208.215L486.604 211.436Z" fill="#FFC709" stroke="black" stroke-width="1.27859"/>
<path fill-rule="evenodd" clip-rule="evenodd" d="M486.085 208.66C486.085 208.66 495.074 221.034 498.333 225.776C502.293 230.983 505.973 238.379 509.405 242.272C513.526 245.951 517.565 246.495 520.443 248.845C523.739 251.337 524.365 252.565 524.567 254.714C524.552 257.612 521.377 259.77 518.119 258.893C514.887 258.599 511.209 254.106 511.209 254.106C511.209 254.106 506.423 246.493 503.121 241.252C495.917 228.807 481.647 210.524 481.647 210.524L486.085 208.66Z" fill="#FFC709" stroke="black" stroke-width="1.3617"/>
<path fill-rule="evenodd" clip-rule="evenodd" d="M479.021 213.02C479.021 213.02 480.296 214.731 491.022 230.071C500.692 246.755 502.132 249.878 502.132 249.878C502.132 249.878 503.663 253.083 505.327 254.106C506.991 255.129 509.915 255.177 510.827 254.553C511.697 253.958 512.17 253.883 512.617 250.782C512.393 248.928 511.896 248.168 511.167 247.439C509.674 246.182 508.889 245.943 507.012 245.238C505.176 244.163 504.499 243.183 503.306 241.369C500.972 237.235 499.939 235.22 495.973 229.167C490.84 221.173 486.734 216.251 481.992 209.948L479.021 213.02Z" fill="#FFC709" stroke="black" stroke-width="1.27859"/>
<path d="M417.037 130.528C431.776 132.081 445.95 135.54 459.293 140.685L458.155 142.967C444.826 137.855 430.823 134.514 416.628 133.008C415.392 132.868 415.666 130.394 417.037 130.528Z" fill="#FFC709" stroke="black" stroke-width="1.05111" stroke-linecap="round" stroke-linejoin="round"/>
<path d="M408.514 134.466C422.051 135.167 432.962 137.233 444.236 140.526C448.618 141.783 452.941 143.238 457.196 144.872L456.039 147.186C440.768 141.379 424.604 137.937 408.291 137.01C406.787 136.848 406.998 134.491 408.514 134.466Z" fill="#FFC709" stroke="black" stroke-width="1.02287" stroke-linecap="round" stroke-linejoin="round"/>
<path d="M414.78 139.618C428.545 141.017 442.142 144.183 455.086 149.078L454.114 151.021C441.366 146.226 427.977 143.131 414.429 141.74C413.173 141.65 413.427 139.502 414.78 139.618Z" fill="#FFC709" stroke="black" stroke-width="1.02287" stroke-linecap="round" stroke-linejoin="round"/>
<path d="M453.347 152.556L452.196 154.85C433.995 148.227 417.773 145.688 403.828 145.275C402.382 145.186 402.377 142.833 404.02 142.744C419.86 143.293 438.084 146.828 453.347 152.556Z" fill="#FFC709" stroke="black" stroke-width="1.02287" stroke-linecap="round" stroke-linejoin="round"/>
<path d="M411.404 147.73C423.53 148.732 437.174 151.583 451.237 156.768L450.061 159.114C437.966 154.636 421.762 151.045 410.963 150.248C409.463 150.026 409.816 147.609 411.404 147.73ZM448.91 161.402L447.765 163.691C435.453 159.172 415.239 154.896 403.501 155.093C402.234 154.994 402.339 152.63 403.61 152.53C418.329 152.523 433.718 155.893 448.91 161.402ZM412.747 157.989C424.286 159.309 435.691 161.992 446.615 165.986L445.47 168.268C435.184 164.552 423.827 161.687 412.453 160.552C410.767 160.315 411.002 157.883 412.747 157.989ZM444.332 170.543L443.181 172.832C433.105 169.219 417.186 165.851 406.353 165.289C404.779 165.11 404.988 162.735 406.571 162.694C419.253 163.175 433.072 166.595 444.332 170.543ZM405.426 168.217C414.819 168.288 431.275 171.747 441.839 175.51L440.688 177.805C430.59 174.233 413.956 170.945 405.305 170.741C403.561 170.723 403.601 168.235 405.426 168.217ZM413.437 174.155C422.245 175.409 430.95 177.52 439.351 180.477L438.207 182.759C430.183 179.852 421.243 177.706 412.907 176.616C411.299 176.276 411.682 173.809 413.437 174.155ZM405.752 178.361C415.454 178.708 428.123 181.56 437.216 184.74L436.065 187.035C427.588 184.111 415.487 181.272 405.714 180.918C403.942 180.82 404.092 178.253 405.752 178.361Z" fill="#FFC709" stroke="black" stroke-width="1.02287" stroke-linecap="round" stroke-linejoin="round"/>
<path fill-rule="evenodd" clip-rule="evenodd" d="M423.565 171.391C423.565 171.391 443.869 167.103 442.609 178.471C437.366 187.849 423.565 171.391 423.565 171.391Z" fill="#FFC709" stroke="black" stroke-width="1.2319" stroke-linejoin="round"/>
<path fill-rule="evenodd" clip-rule="evenodd" d="M427.951 184.387C427.951 184.387 444.419 195.047 447.298 184.558C445.952 174.484 427.951 184.387 427.951 184.387Z" fill="#FFC709" stroke="black" stroke-width="1.17038" stroke-linejoin="round"/>
<path fill-rule="evenodd" clip-rule="evenodd" d="M440.411 170.543C440.411 170.543 459.423 175.209 453.564 184.584C445.169 190.579 440.411 170.543 440.411 170.543Z" fill="#FFC709" stroke="black" stroke-width="1.17642" stroke-linejoin="round"/>
<path fill-rule="evenodd" clip-rule="evenodd" d="M440.045 189.823C440.045 189.823 456.352 199.133 458.328 188.756C456.343 179.051 440.045 189.823 440.045 189.823Z" fill="#FFC709" stroke="black" stroke-width="1.12387" stroke-linejoin="round"/>
<path fill-rule="evenodd" clip-rule="evenodd" d="M452.875 174.683C452.875 174.683 470.923 181.484 464.077 189.885C455.15 194.701 452.875 174.683 452.875 174.683Z" fill="#FFC709" stroke="black" stroke-width="1.15504" stroke-linejoin="round"/>
<path fill-rule="evenodd" clip-rule="evenodd" d="M450.316 194.966C450.316 194.966 465.77 204.419 467.475 194.051C465.469 184.324 450.316 194.966 450.316 194.966Z" fill="#FFC709" stroke="black" stroke-width="1.09103" stroke-linejoin="round"/>
<path fill-rule="evenodd" clip-rule="evenodd" d="M464.721 180.039C464.721 180.039 480.865 189.951 472.471 196.432C462.796 199.158 464.721 180.039 464.721 180.039Z" fill="#FFC709" stroke="black" stroke-width="1.12472" stroke-linejoin="round"/>
<path fill-rule="evenodd" clip-rule="evenodd" d="M458.467 199.23C458.467 199.23 473.233 211.202 476.81 201.195C476.345 191.202 458.467 199.23 458.467 199.23Z" fill="#FFC709" stroke="black" stroke-width="1.13271" stroke-linejoin="round"/>
<path fill-rule="evenodd" clip-rule="evenodd" d="M467.134 204.787C467.134 204.787 479.557 217.605 484.117 208.734C484.88 199.407 467.134 204.787 467.134 204.787Z" fill="#FFC709" stroke="black" stroke-width="1.06554" stroke-linejoin="round"/>
<path fill-rule="evenodd" clip-rule="evenodd" d="M474.521 187.519C474.521 187.519 490.27 197.416 481.914 203.637C472.35 206.174 474.521 187.519 474.521 187.519Z" fill="#FFC709" stroke="black" stroke-width="1.10328" stroke-linejoin="round"/>
<path fill-rule="evenodd" clip-rule="evenodd" d="M484.286 194.309C484.286 194.309 498.615 206.067 489.569 211.349C479.793 212.792 484.286 194.309 484.286 194.309Z" fill="#FFC709" stroke="black" stroke-width="1.10729" stroke-linejoin="round"/>
<path fill-rule="evenodd" clip-rule="evenodd" d="M475.453 212.133C475.453 212.133 487.887 226.008 492.51 216.215C493.318 205.977 475.453 212.133 475.453 212.133Z" fill="#FFC709" stroke="black" stroke-width="1.12087" stroke-linejoin="round"/>
<path fill-rule="evenodd" clip-rule="evenodd" d="M438.909 140.925C438.909 140.925 461.139 136.653 459.421 149.582C453.427 160.12 438.909 140.925 438.909 140.925Z" fill="#FFC709" stroke="black" stroke-width="1.37316" stroke-linejoin="round"/>
<path fill-rule="evenodd" clip-rule="evenodd" d="M457.337 139.57C457.337 139.57 477.757 148.442 469.306 157.581C458.681 162.508 457.337 139.57 457.337 139.57Z" fill="#FFC709" stroke="black" stroke-width="1.32706" stroke-linejoin="round"/>
<path fill-rule="evenodd" clip-rule="evenodd" d="M469.006 144.776C469.006 144.776 489.916 155.323 480.721 164.872C469.437 169.75 469.006 144.776 469.006 144.776Z" fill="#FFC709" stroke="black" stroke-width="1.41327" stroke-linejoin="round"/>
<path fill-rule="evenodd" clip-rule="evenodd" d="M481.096 150.691C481.096 150.691 500.552 162.506 490.974 171.09C479.713 174.98 481.096 150.691 481.096 150.691Z" fill="#FFC709" stroke="black" stroke-width="1.37352" stroke-linejoin="round"/>
<path fill-rule="evenodd" clip-rule="evenodd" d="M493.683 158.56C493.683 158.56 510.978 172.176 500.402 178.799C488.856 180.845 493.683 158.56 493.683 158.56Z" fill="#FFC709" stroke="black" stroke-width="1.31945" stroke-linejoin="round"/>
<path fill-rule="evenodd" clip-rule="evenodd" d="M503.247 165.514C503.247 165.514 520.015 179.936 509.296 186.277C497.756 187.942 503.247 165.514 503.247 165.514Z" fill="#FFC709" stroke="black" stroke-width="1.3253" stroke-linejoin="round"/>
<path fill-rule="evenodd" clip-rule="evenodd" d="M512.353 172.116C512.353 172.116 529.237 186.317 518.57 192.733C507.044 194.502 512.353 172.116 512.353 172.116Z" fill="#FFC709" stroke="black" stroke-width="1.32252" stroke-linejoin="round"/>
<path fill-rule="evenodd" clip-rule="evenodd" d="M521.856 180.472C521.856 180.472 536.706 196.653 525.436 201.689C513.891 202.01 521.856 180.472 521.856 180.472Z" fill="#FFC709" stroke="black" stroke-width="1.31571" stroke-linejoin="round"/>
<path fill-rule="evenodd" clip-rule="evenodd" d="M418.291 154.91C418.291 154.91 431.255 172.792 438.361 162.605C440.906 151.226 418.291 154.91 418.291 154.91Z" fill="#FFC709" stroke="black" stroke-width="1.32077" stroke-linejoin="round"/>
<path fill-rule="evenodd" clip-rule="evenodd" d="M428.333 146.111C428.333 146.111 449.81 146.019 446.028 158.496C438.658 167.811 428.333 146.111 428.333 146.111Z" fill="#FFC709" stroke="black" stroke-width="1.34243" stroke-linejoin="round"/>
<path fill-rule="evenodd" clip-rule="evenodd" d="M429.16 167.222C429.16 167.222 449.436 177.793 451.452 165.081C448.654 153.369 429.16 167.222 429.16 167.222Z" fill="#FFC709" stroke="black" stroke-width="1.37062" stroke-linejoin="round"/>
<path fill-rule="evenodd" clip-rule="evenodd" d="M442.971 147.659C442.971 147.659 465.295 153.365 458.234 164.092C448.241 170.874 442.971 147.659 442.971 147.659Z" fill="#FFC709" stroke="black" stroke-width="1.37233" stroke-linejoin="round"/>
<path fill-rule="evenodd" clip-rule="evenodd" d="M443.229 171.643C443.229 171.643 463.528 183.025 465.741 169.73C463.086 157.413 443.229 171.643 443.229 171.643Z" fill="#FFC709" stroke="black" stroke-width="1.40988" stroke-linejoin="round"/>
<path fill-rule="evenodd" clip-rule="evenodd" d="M455.986 178.199C455.986 178.199 475.032 189.185 477.434 176.963C475.185 165.528 455.986 178.199 455.986 178.199Z" fill="#FFC709" stroke="black" stroke-width="1.3209" stroke-linejoin="round"/>
<path fill-rule="evenodd" clip-rule="evenodd" d="M457.274 151.486C457.274 151.486 480.521 160.374 471.719 171.397C460.233 177.724 457.274 151.486 457.274 151.486Z" fill="#FFC709" stroke="black" stroke-width="1.50056" stroke-linejoin="round"/>
<path fill-rule="evenodd" clip-rule="evenodd" d="M472.987 159.796C472.987 159.796 493.388 171.65 483.272 180.147C471.41 183.964 472.987 159.796 472.987 159.796Z" fill="#FFC709" stroke="black" stroke-width="1.40518" stroke-linejoin="round"/>
<path fill-rule="evenodd" clip-rule="evenodd" d="M467.436 184.015C467.436 184.015 484.808 197.283 488.447 185.187C487.474 173.363 467.436 184.015 467.436 184.015Z" fill="#FFC709" stroke="black" stroke-width="1.31972" stroke-linejoin="round"/>
<path fill-rule="evenodd" clip-rule="evenodd" d="M486.315 167.376C486.315 167.376 505.427 181.26 494.508 188.826C482.322 191.519 486.315 167.376 486.315 167.376Z" fill="#FFC709" stroke="black" stroke-width="1.41213" stroke-linejoin="round"/>
<path fill-rule="evenodd" clip-rule="evenodd" d="M497.648 174.943C497.648 174.943 514.857 189.347 503.997 195.824C492.259 197.596 497.648 174.943 497.648 174.943Z" fill="#FFC709" stroke="black" stroke-width="1.34296" stroke-linejoin="round"/>
<path fill-rule="evenodd" clip-rule="evenodd" d="M477.713 190.816C477.713 190.816 493.895 206.575 499.493 195.219C500.232 183.417 477.713 190.816 477.713 190.816Z" fill="#FFC709" stroke="black" stroke-width="1.35317" stroke-linejoin="round"/>
<path fill-rule="evenodd" clip-rule="evenodd" d="M533.252 392.024C533.252 392.024 517.832 409.609 509.924 398.972C507.302 387.319 533.252 392.024 533.252 392.024Z" fill="#FFC709" stroke="black" stroke-width="1.43122" stroke-linejoin="round"/>
<path fill-rule="evenodd" clip-rule="evenodd" d="M525.724 401.883C525.724 401.883 508.783 420.816 501.604 408.5C499.847 395.311 525.724 401.883 525.724 401.883Z" fill="#FFC709" stroke="black" stroke-width="1.52304" stroke-linejoin="round"/>
<path fill-rule="evenodd" clip-rule="evenodd" d="M514.606 411.889C514.606 411.889 499.707 427.353 494.113 416.656C493.105 405.407 514.606 411.889 514.606 411.889Z" fill="#FFC709" stroke="black" stroke-width="1.28657" stroke-linejoin="round"/>
<path fill-rule="evenodd" clip-rule="evenodd" d="M501.784 373.388C501.784 373.388 487.442 389.372 498.522 394.169C509.817 394.354 501.784 373.388 501.784 373.388Z" fill="#FFC709" stroke="black" stroke-width="1.28657" stroke-linejoin="round"/>
<path fill-rule="evenodd" clip-rule="evenodd" d="M513.598 391.304C513.598 391.304 502.7 410.965 494.276 401.585C490.311 390.428 513.598 391.304 513.598 391.304Z" fill="#FFC709" stroke="black" stroke-width="1.34282" stroke-linejoin="round"/>
<path fill-rule="evenodd" clip-rule="evenodd" d="M494.404 387.555C494.404 387.555 481.255 404.531 474.543 394.497C472.331 383.422 494.404 387.555 494.404 387.555Z" fill="#FFC709" stroke="black" stroke-width="1.28657" stroke-linejoin="round"/>
<path fill-rule="evenodd" clip-rule="evenodd" d="M494.357 382.594C494.357 382.594 478.285 397.767 489.162 403.716C500.674 404.93 494.357 382.594 494.357 382.594Z" fill="#FFC709" stroke="black" stroke-width="1.32468" stroke-linejoin="round"/>
<path fill-rule="evenodd" clip-rule="evenodd" d="M505.41 404.143C505.41 404.143 490.611 420.963 484.192 410.152C482.547 398.532 505.41 404.143 505.41 404.143Z" fill="#FFC709" stroke="black" stroke-width="1.34313" stroke-linejoin="round"/>
<path fill-rule="evenodd" clip-rule="evenodd" d="M476.21 374.678C476.21 374.678 460.575 388.373 469.977 394.507C480.296 396.174 476.21 374.678 476.21 374.678Z" fill="#FFC709" stroke="black" stroke-width="1.23114" stroke-linejoin="round"/>
<path fill-rule="evenodd" clip-rule="evenodd" d="M485.658 394.641C485.658 394.641 472.024 409.983 466.267 399.989C464.869 389.29 485.658 394.641 485.658 394.641Z" fill="#FFC709" stroke="black" stroke-width="1.2296" stroke-linejoin="round"/>
<path fill-rule="evenodd" clip-rule="evenodd" d="M466.75 381.925C466.75 381.925 452.193 394.793 461.829 400.166C472.094 401.441 466.75 381.925 466.75 381.925Z" fill="#FFC709" stroke="black" stroke-width="1.16686" stroke-linejoin="round"/>
<path fill-rule="evenodd" clip-rule="evenodd" d="M478.981 402.3C478.981 402.3 462.678 416.278 458.128 405.096C458.195 393.803 478.981 402.3 478.981 402.3Z" fill="#FFC709" stroke="black" stroke-width="1.28657" stroke-linejoin="round"/>
<path fill-rule="evenodd" clip-rule="evenodd" d="M485.541 391.885C485.541 391.885 467.563 405.078 477.816 412.292C489.266 414.869 485.541 391.885 485.541 391.885Z" fill="#FFC709" stroke="black" stroke-width="1.33555" stroke-linejoin="round"/>
<path fill-rule="evenodd" clip-rule="evenodd" d="M475.214 400.61C475.214 400.61 458.076 413.551 468.031 420.381C479.081 422.725 475.214 400.61 475.214 400.61Z" fill="#FFC709" stroke="black" stroke-width="1.28657" stroke-linejoin="round"/>
<path fill-rule="evenodd" clip-rule="evenodd" d="M457.582 391.05C457.582 391.05 442.489 406.326 453.325 411.65C464.598 412.378 457.582 391.05 457.582 391.05Z" fill="#FFC709" stroke="black" stroke-width="1.28657" stroke-linejoin="round"/>
<path fill-rule="evenodd" clip-rule="evenodd" d="M553.038 231.864C553.038 231.864 560.629 252.868 547.84 253.113C536.703 248.842 553.038 231.864 553.038 231.864Z" fill="#FFC709" stroke="black" stroke-width="1.34946" stroke-linejoin="round"/>
<path fill-rule="evenodd" clip-rule="evenodd" d="M557.444 244.346C557.444 244.346 563.433 266.012 550.538 265.321C539.663 260.213 557.444 244.346 557.444 244.346Z" fill="#FFC709" stroke="black" stroke-width="1.36121" stroke-linejoin="round"/>
<path fill-rule="evenodd" clip-rule="evenodd" d="M561.017 256.974C561.017 256.974 565.848 278.621 552.27 277.191C541.13 271.536 561.017 256.974 561.017 256.974Z" fill="#FFC709" stroke="black" stroke-width="1.39111" stroke-linejoin="round"/>
<path fill-rule="evenodd" clip-rule="evenodd" d="M563.219 269.621C563.219 269.621 565.755 293.197 553.128 290.359C543.183 283.247 563.219 269.621 563.219 269.621Z" fill="#FFC709" stroke="black" stroke-width="1.39847" stroke-linejoin="round"/>
<path fill-rule="evenodd" clip-rule="evenodd" d="M564.546 282.651C564.546 282.651 566.229 305.151 553.645 302.02C543.914 294.917 564.546 282.651 564.546 282.651Z" fill="#FFC709" stroke="black" stroke-width="1.36771" stroke-linejoin="round"/>
<path fill-rule="evenodd" clip-rule="evenodd" d="M530.433 220.245C530.433 220.245 545.654 238.671 532.426 242.975C519.344 242.275 530.433 220.245 530.433 220.245Z" fill="#FFC709" stroke="black" stroke-width="1.4445" stroke-linejoin="round"/>
<path fill-rule="evenodd" clip-rule="evenodd" d="M516.232 236.369C516.232 236.369 523.283 257.751 533.526 250.212C539.661 240.063 516.232 236.369 516.232 236.369Z" fill="#FFC709" stroke="black" stroke-width="1.35358" stroke-linejoin="round"/>
<path fill-rule="evenodd" clip-rule="evenodd" d="M540.09 234.214C540.09 234.214 550.625 254.357 537.722 256.244C525.877 253.379 540.09 234.214 540.09 234.214Z" fill="#FFC709" stroke="black" stroke-width="1.37259" stroke-linejoin="round"/>
<path fill-rule="evenodd" clip-rule="evenodd" d="M516.21 240.262C516.21 240.262 528.971 256.879 517.345 259.658C505.978 258.205 516.21 240.262 516.21 240.262Z" fill="#FFC709" stroke="black" stroke-width="1.24347" stroke-linejoin="round"/>
<path fill-rule="evenodd" clip-rule="evenodd" d="M503.018 252.578C503.018 252.578 508.414 271.171 516.744 264.75C521.806 256.025 503.018 252.578 503.018 252.578Z" fill="#FFC709" stroke="black" stroke-width="1.12968" stroke-linejoin="round"/>
<path fill-rule="evenodd" clip-rule="evenodd" d="M522.655 251.872C522.655 251.872 530.948 270.212 520.217 270.939C510.465 267.592 522.655 251.872 522.655 251.872Z" fill="#FFC709" stroke="black" stroke-width="1.16849" stroke-linejoin="round"/>
<path fill-rule="evenodd" clip-rule="evenodd" d="M520.499 248.483C520.499 248.483 526.464 270.032 536.777 262.99C543.196 253.175 520.499 248.483 520.499 248.483Z" fill="#FFC709" stroke="black" stroke-width="1.33372" stroke-linejoin="round"/>
<path fill-rule="evenodd" clip-rule="evenodd" d="M546.542 248.406C546.542 248.406 553.406 271.335 539.732 270.846C528.09 265.621 546.542 248.406 546.542 248.406Z" fill="#FFC709" stroke="black" stroke-width="1.44505" stroke-linejoin="round"/>
<path fill-rule="evenodd" clip-rule="evenodd" d="M506.578 262.703C506.578 262.703 510.105 280.709 519.27 275.649C525.35 268.063 506.578 262.703 506.578 262.703Z" fill="#FFC709" stroke="black" stroke-width="1.10951" stroke-linejoin="round"/>
<path fill-rule="evenodd" clip-rule="evenodd" d="M525.852 264.232C525.852 264.232 532.84 281.541 521.872 281.58C512.219 277.94 525.852 264.232 525.852 264.232Z" fill="#FFC709" stroke="black" stroke-width="1.13299" stroke-linejoin="round"/>
<path fill-rule="evenodd" clip-rule="evenodd" d="M524.793 259.784C524.793 259.784 527.039 282.299 538.721 277.091C546.947 268.437 524.793 259.784 524.793 259.784Z" fill="#FFC709" stroke="black" stroke-width="1.35988" stroke-linejoin="round"/>
<path fill-rule="evenodd" clip-rule="evenodd" d="M550.842 262.216C550.842 262.216 554.814 286.439 542.077 284.399C531.745 277.744 550.842 262.216 550.842 262.216Z" fill="#FFC709" stroke="black" stroke-width="1.4228" stroke-linejoin="round"/>
<path fill-rule="evenodd" clip-rule="evenodd" d="M508.625 271.853C508.625 271.853 511.143 291.579 520.603 286.655C527.116 278.804 508.625 271.853 508.625 271.853Z" fill="#FFC709" stroke="black" stroke-width="1.15745" stroke-linejoin="round"/>
<path fill-rule="evenodd" clip-rule="evenodd" d="M528.181 276.389C528.181 276.389 533.367 294.536 522.528 293.653C513.355 289.148 528.181 276.389 528.181 276.389Z" fill="#FFC709" stroke="black" stroke-width="1.13784" stroke-linejoin="round"/>
<path fill-rule="evenodd" clip-rule="evenodd" d="M527.466 272.727C527.466 272.727 528.142 295.22 539.984 290.855C548.662 282.834 527.466 272.727 527.466 272.727Z" fill="#FFC709" stroke="black" stroke-width="1.34645" stroke-linejoin="round"/>
<path fill-rule="evenodd" clip-rule="evenodd" d="M553.106 277.199C553.106 277.199 553.5 301.093 541.208 297.056C531.968 288.983 553.106 277.199 553.106 277.199Z" fill="#FFC709" stroke="black" stroke-width="1.40235" stroke-linejoin="round"/>
<path fill-rule="evenodd" clip-rule="evenodd" d="M565.833 294.514C565.833 294.514 565.264 317.392 553.278 313.01C544.47 304.894 565.833 294.514 565.833 294.514Z" fill="#FFC709" stroke="black" stroke-width="1.36481" stroke-linejoin="round"/>
<path fill-rule="evenodd" clip-rule="evenodd" d="M510.753 282.549C510.753 282.549 510.179 301.561 520.633 298.548C528.542 292.273 510.753 282.549 510.753 282.549Z" fill="#FFC709" stroke="black" stroke-width="1.15162" stroke-linejoin="round"/>
<path fill-rule="evenodd" clip-rule="evenodd" d="M530.533 289.446C530.533 289.446 532.872 309.299 521.361 306.454C512.289 300.126 530.533 289.446 530.533 289.446Z" fill="#FFC709" stroke="black" stroke-width="1.22344" stroke-linejoin="round"/>
<path fill-rule="evenodd" clip-rule="evenodd" d="M528.295 284.529C528.295 284.529 527.22 307.324 539.267 303.886C548.468 296.492 528.295 284.529 528.295 284.529Z" fill="#FFC709" stroke="black" stroke-width="1.3505" stroke-linejoin="round"/>
<path fill-rule="evenodd" clip-rule="evenodd" d="M554.665 290.953C554.665 290.953 552.889 313.764 541.429 308.722C533.269 300.129 554.665 290.953 554.665 290.953Z" fill="#FFC709" stroke="black" stroke-width="1.34905" stroke-linejoin="round"/>
<path fill-rule="evenodd" clip-rule="evenodd" d="M511.256 293.287C511.256 293.287 508.62 312.362 519.316 310.282C527.843 304.688 511.256 293.287 511.256 293.287Z" fill="#FFC709" stroke="black" stroke-width="1.15611" stroke-linejoin="round"/>
<path fill-rule="evenodd" clip-rule="evenodd" d="M530.03 301.463C530.03 301.463 530.918 321.324 520.966 317.773C513.365 310.918 530.03 301.463 530.03 301.463Z" fill="#FFC709" stroke="black" stroke-width="1.14437" stroke-linejoin="round"/>
<path fill-rule="evenodd" clip-rule="evenodd" d="M510.648 303.88C510.648 303.88 507.599 322.27 518.432 319.981C527.148 314.376 510.648 303.88 510.648 303.88Z" fill="#FFC709" stroke="black" stroke-width="1.13926" stroke-linejoin="round"/>
<path fill-rule="evenodd" clip-rule="evenodd" d="M565.726 307.989C565.726 307.989 562.562 329.227 551.799 323.757C544.452 315.179 565.726 307.989 565.726 307.989Z" fill="#FFC709" stroke="black" stroke-width="1.28657" stroke-linejoin="round"/>
<path fill-rule="evenodd" clip-rule="evenodd" d="M524.817 352.196C524.817 352.196 536.837 352.346 544.854 349.805C555.379 346.928 559.571 337.204 559.571 337.204C559.571 337.204 561.114 339.43 561.018 342.598C560.922 345.478 558.864 352.124 553.697 359.161C548.338 367.829 544.691 378.05 540.369 384.762C536.913 390.803 529.617 396.268 529.617 396.268C529.617 396.268 506.4 393.493 504.154 393.014C501.163 392.557 480.649 387.83 476.045 387.575C471.442 387.319 460.988 387.99 460.988 387.99C460.988 387.99 464.668 381.214 466.444 379.904C469.996 376.962 474.29 375.763 478.733 371.466C481.16 368.802 485.252 364.084 487.554 361.527C490.432 358.778 492.604 356.071 495.738 354.308C498.296 352.641 524.817 352.196 524.817 352.196Z" fill="black" stroke="black" stroke-width="0.639297"/>
<path fill-rule="evenodd" clip-rule="evenodd" d="M472.341 376.505C472.341 376.505 480.875 376.722 484.984 377.248C489.524 377.967 499.284 379.146 507.119 379.949C514.158 380.726 520.121 381.179 528.065 381.263L542.493 380.603C542.033 381.459 540.747 383.765 539.471 385.599C537.937 387.949 536.73 389.513 533.921 392.128C531.617 394.31 530.194 395.444 529.534 395.949C527.805 395.757 516.89 394.449 512.483 393.839C505.232 393.134 501.553 392.163 493.204 390.395C488.84 389.506 478.725 387.378 476.093 387.233C473.125 386.992 462.572 387.549 461.468 387.645C462.369 386.164 463.262 384.678 464.147 383.188C465.783 380.423 467.049 379.711 469.351 378.172C470.262 377.578 472.266 376.536 472.341 376.505Z" fill="#FFC709"/>
<path fill-rule="evenodd" clip-rule="evenodd" d="M551.075 363.063C550.403 364.311 548.63 367.886 547.048 371.083C545.021 375.464 543.905 377.851 542.425 380.726C539.209 380.966 536.07 381.058 528.062 381.313C520.118 381.23 514.159 380.775 507.12 380C499.285 379.201 489.521 378.028 484.981 377.312C480.872 376.788 472.209 376.58 472.209 376.58C472.209 376.58 476.057 374.255 477.848 372.721C480.07 370.659 481.091 369.187 482.902 367.279C485.255 367.087 488.529 367.072 492.109 366.816C498.378 366.464 508.014 367.12 513.385 367.12C518.755 367.12 527.835 366.936 535.492 366.046C545.885 365.299 548.387 363.591 551.075 363.063Z" fill="#DD0000"/>
<path d="M559.731 339.358C558.139 341.821 556.536 344.331 553.974 346.421C549.627 349.524 548.506 350.14 540.106 352.11C532.538 353.309 530.834 352.977 520.744 353.288C510.91 353.59 508.07 353.819 501.709 354.334C498.634 354.583 497.604 354.841 496.279 355.053" stroke="#FFC709" stroke-width="1.02287" stroke-linecap="round"/>
<path fill-rule="evenodd" clip-rule="evenodd" d="M358.879 397.223C357.477 397.235 355.983 397.429 354.538 397.683C344.904 399.353 337.646 404.998 313.643 410.672C305.376 412.937 296.923 413.677 287.16 413.191C286.439 412.989 285.861 412.179 285.85 411.331L283.497 409.988C282.467 411.578 283.095 413.205 283.465 414.194C283.769 415.009 284.255 415.931 284.974 416.502C302.326 428.855 302.773 431.511 312.754 440.926C318.258 446.35 319.917 448.065 338.24 445.158C341.854 451.018 342.636 454.076 353.061 451.045L354.812 455.437C356.434 458.463 358.655 458.51 364.294 457.31C378.899 454.169 383.123 450.609 399.799 450.24C416.48 450.608 420.703 454.168 435.31 457.31C440.949 458.51 443.17 458.463 444.792 455.437L446.544 451.045C456.969 454.076 457.75 451.019 461.364 445.158C479.687 448.065 481.347 446.35 486.85 440.926C496.831 431.511 497.278 428.855 514.631 416.502C515.35 415.931 515.829 415.009 516.133 414.194C516.503 413.205 517.137 411.578 516.108 409.988L513.755 411.331C513.743 412.179 513.165 412.989 512.444 413.191C502.681 413.677 494.229 412.936 485.961 410.672C461.959 404.998 454.7 399.353 445.067 397.683C441.213 397.005 436.985 396.75 435.189 399.249C433.112 401.78 431.389 406.582 428.417 411.056C422.847 409.287 418.423 407.656 413.865 406.696C407.778 405.414 403.388 405.493 399.799 405.493C396.269 405.493 391.824 405.415 385.739 406.696C381.182 407.656 376.757 409.287 371.187 411.056C368.215 406.582 366.492 401.78 364.416 399.249C363.293 397.687 361.216 397.204 358.879 397.223Z" fill="black" stroke="black" stroke-width="0.639297"/>
<path d="M357.102 409.156C358.604 411.831 359.215 413.946 359.796 416.275" stroke="#FFC709" stroke-width="1.02287"/>
<path fill-rule="evenodd" clip-rule="evenodd" d="M298.917 426.896C305.053 426.23 306.84 426.062 311.914 425.218C316.674 424.351 320.603 423.479 324.881 422.322C326.176 424.25 327.382 426.101 328.724 428.013C329.927 429.931 330.463 430.635 332.329 434.589C328.478 434.938 325.291 435.522 321.239 436.041C317.763 436.493 313.778 437.038 309.7 437.537C308.137 436.005 306.944 434.751 305.242 432.987C303.164 430.895 301.581 429.265 298.917 426.896ZM341.961 425.585C335.786 426.887 335.022 427.012 330.385 428.513C332.74 432.613 334.06 436.487 335.7 439.893C340.456 438.816 342.874 438.315 347.479 437.366L345.145 432.354L341.961 425.585Z" fill="#DD0000"/>
<path fill-rule="evenodd" clip-rule="evenodd" d="M309.682 437.525C313.455 437.077 317.161 436.561 321.002 436.058C325.492 435.456 328.516 434.95 332.64 434.538C333.492 436.52 333.93 437.584 334.94 439.812C335.785 441.671 336.901 443.435 337.742 444.936C335.012 445.316 332.92 445.642 329.917 445.954C326.674 446.227 325.502 446.331 322.879 446.163C320.298 445.93 318.409 445.426 316.113 443.631C314.629 442.435 312.266 440.028 309.682 437.525ZM335.703 439.893C339.806 438.936 343.489 438.162 347.82 437.296C348.851 439.781 349.254 440.915 350.134 443.476C351.05 446.054 351.815 448.389 352.655 450.846C350.599 451.399 349.832 451.573 347.533 451.868C345.674 452.004 343.936 451.807 342.593 450.73C341.517 449.954 339.984 447.599 338.543 445.077C337.455 443.136 336.701 441.955 335.703 439.893Z" fill="#FFC709"/>
<path fill-rule="evenodd" clip-rule="evenodd" d="M397.427 421.098C393.817 421.291 390.212 421.748 389.032 422.031C382.077 423.733 377.927 425.182 373.169 426.781C364.748 429.594 362.095 430.888 357.357 432.335C353.61 433.483 350.949 434.104 347.536 434.886C349.177 438.779 350.403 442.327 351.878 446.564C356.162 445.829 359.596 445.064 363.866 443.777C368.654 442.2 372.862 440.86 378.022 439.296C382.488 437.945 385.656 437.184 391.596 436.177C393.968 435.954 395.693 435.816 397.491 435.755V435.761C398.347 435.732 399.08 435.721 399.799 435.717C400.52 435.721 401.255 435.732 402.114 435.762V435.755C403.909 435.816 405.639 435.954 408.008 436.177C413.948 437.184 417.117 437.945 421.582 439.296C426.742 440.86 430.95 442.2 435.738 443.777C440.009 445.064 443.442 445.829 447.726 446.564C449.202 442.327 450.427 438.779 452.068 434.886C448.656 434.104 445.994 433.483 442.247 432.335C437.51 430.888 434.856 429.594 426.435 426.78C421.677 425.182 417.527 423.733 410.572 422.031C409.393 421.748 405.787 421.291 402.178 421.098C399.968 421.007 399.625 421.007 397.427 421.098Z" fill="#DD0000"/>
<path fill-rule="evenodd" clip-rule="evenodd" d="M397.785 435.71V435.723C393.834 435.79 391.056 436.11 385.157 437.379C375.39 439.651 366.856 442.994 361.238 444.531C357.933 445.367 355.078 445.958 351.884 446.59C352.932 449.891 354.076 452.907 355.273 455.641C356.532 457.699 358.328 457.93 360.286 457.699C363.413 457.219 365.983 456.667 369.147 455.852C375.431 454.161 380.559 452.412 386.564 451.186C391.365 450.313 395.172 450.06 399.799 449.927C404.426 450.06 408.233 450.313 413.034 451.186C419.039 452.412 424.173 454.161 430.457 455.852C433.622 456.667 436.192 457.219 439.319 457.699C441.276 457.93 443.072 457.699 444.331 455.641C445.528 452.907 446.672 449.891 447.72 446.59C444.527 445.958 441.665 445.367 438.36 444.531C432.742 442.994 424.215 439.651 414.447 437.379C408.551 436.111 405.767 435.79 401.819 435.723V435.71C401.044 435.706 400.472 435.716 399.799 435.717C399.127 435.717 398.559 435.706 397.785 435.71Z" fill="#FFC709"/>
<path d="M442.448 409.316C441.264 411.778 440.335 414.052 439.701 416.275" stroke="#FFC709" stroke-width="1.02287"/>
<path fill-rule="evenodd" clip-rule="evenodd" d="M500.686 426.896C494.55 426.23 492.762 426.062 487.689 425.218C482.929 424.351 479 423.479 474.722 422.322C473.426 424.25 472.221 426.101 470.879 428.013C469.676 429.931 469.14 430.635 467.273 434.589C471.125 434.938 474.312 435.522 478.364 436.041C481.84 436.493 485.825 437.038 489.903 437.537C491.466 436.005 492.659 434.751 494.361 432.987C496.438 430.895 498.022 429.265 500.686 426.896ZM457.642 425.585C463.817 426.887 464.581 427.012 469.218 428.513C466.862 432.613 465.543 436.487 463.902 439.893C459.147 438.816 456.728 438.315 452.124 437.366L454.458 432.354L457.642 425.585Z" fill="#DD0000"/>
<path fill-rule="evenodd" clip-rule="evenodd" d="M489.921 437.525C486.148 437.077 482.442 436.561 478.601 436.058C474.11 435.456 471.087 434.95 466.963 434.538C466.111 436.52 465.673 437.584 464.663 439.812C463.818 441.671 462.702 443.435 461.861 444.936C464.591 445.316 466.683 445.642 469.685 445.954C472.928 446.227 474.1 446.331 476.724 446.163C479.305 445.93 481.193 445.426 483.489 443.631C484.974 442.435 487.337 440.028 489.921 437.525ZM463.9 439.893C459.796 438.936 456.114 438.162 451.783 437.296C450.752 439.781 450.348 440.915 449.469 443.476C448.552 446.054 447.788 448.389 446.947 450.846C449.004 451.399 449.77 451.573 452.07 451.868C453.929 452.004 455.667 451.807 457.01 450.73C458.086 449.954 459.618 447.599 461.059 445.077C462.148 443.136 462.902 441.955 463.9 439.893Z" fill="#FFC709"/>
<path d="M339.29 419.893C340.271 422.624 342.409 426.106 343.802 429.042C344.395 430.176 346.313 434.188 347.706 437.859M321.624 417.007C323.913 420.584 326.055 423.866 328.503 427.374C330.268 429.944 331.372 432.447 332.504 435.03M477.925 417.379C475.637 420.955 473.548 423.866 471.1 427.374C469.334 429.944 468.231 432.447 467.099 435.03M460.299 419.632C459.317 422.363 457.179 426.11 455.786 429.046C455.194 430.18 453.275 434.193 451.882 437.863" stroke="#FFC709" stroke-width="0.639297"/>
<path d="M284.608 410.612C284.232 411.185 284.481 412.061 284.772 412.588C285.019 413.037 285.837 414.107 286.944 414.262C295.309 414.591 300.692 414.484 309.336 412.825C318.468 410.669 326.69 408.632 335.925 405.179C341.359 403.22 347.834 400.444 351.721 399.384C356.609 398.069 361.388 397.243 363.089 399.319C364.31 401.23 360.252 403.473 356.154 404.831C351.393 406.275 346.914 407.017 342.125 407.646C337.07 408.571 331.705 409.58 327.184 410.955C324.354 411.871 321.118 414.174 321.466 416.186C322.052 418.818 325.799 418.067 329.142 416.959L351.308 408.498C353.836 407.575 356.547 407.885 357.119 409.243C357.619 410.631 357.22 412.554 353.811 413.239L343.199 415.03C339.433 415.714 339.013 418.45 339.299 419.437C339.615 420.463 341.145 421.899 345.68 420.817C356.089 418.268 363.349 414.651 370.074 412.581C386.462 407.016 389.511 406.597 399.784 406.557C409.693 406.577 412.834 406.919 429.529 412.581C436.254 414.651 443.514 418.268 453.923 420.817C458.458 421.899 459.935 420.304 460.251 419.278C460.537 418.291 460.01 416.138 456.404 415.03L445.792 413.239C442.383 412.553 441.984 410.631 442.484 409.243C443.056 407.885 445.767 407.575 448.295 408.498L470.461 416.959C473.803 418.067 477.71 418.924 478.296 416.292C478.644 414.28 476.045 412.03 472.419 410.955C467.898 409.58 462.533 408.571 457.478 407.646C452.689 407.017 448.21 406.275 443.449 404.831C439.351 403.473 435.292 401.283 436.46 399.319C438.428 397.19 443.312 398.016 447.882 399.384C451.769 400.444 458.244 403.22 463.678 405.179C472.913 408.632 481.135 410.669 490.267 412.825C498.911 414.484 504.293 414.591 512.659 414.261C513.766 414.107 514.584 413.037 514.831 412.588C515.122 412.06 515.371 411.185 514.995 410.612" stroke="#FFC709" stroke-width="1.02287"/>
</svg>
