<svg width="800" height="600" viewBox="0 0 800 600" fill="none" xmlns="http://www.w3.org/2000/svg">
<g clip-path="url(#clip0_7_283)">
<path d="M0 0H1200V600H0V0Z" fill="#CC0000"/>
<path d="M200.001 37.5L191.581 63.4119H164.336L186.378 79.4261L177.958 105.338L200.001 89.3235L222.043 105.338L213.623 79.4261L235.665 63.4119H208.42L200.001 37.5ZM200.001 51L205.389 67.5835H222.826L208.719 77.833L214.107 94.4164L200.001 84.1672L185.894 94.4164L191.282 77.833L177.175 67.5835H194.612L200.001 51Z" fill="#FFD700"/>
<path d="M139.799 173.183L158.461 191.925L176.059 174.493C202.828 203.129 230.905 230.733 257.467 259.479C261.458 263.487 267.952 263.51 271.971 259.529C275.99 255.548 276.012 249.071 272.021 245.063C243.51 218.233 214.912 191.185 186.392 164.258L210.101 140.773L177.117 136.219L139.799 173.183Z" fill="#FFD700"/>
<path d="M200 112.5C215.352 121.124 227.008 133.499 233.883 146.436C240.852 159.549 243.914 173.238 243.977 184.183C244.106 206.625 225.737 224.819 203.235 224.819C191.229 224.819 180.435 219.64 172.979 211.399L168.855 214.862C168.153 214.594 167.407 214.456 166.654 214.455C164.844 214.455 163.126 215.25 161.957 216.627C159.015 217.011 156.552 219.04 155.62 221.849C152.518 228.054 147.077 232.92 140.492 235.148C140.429 235.169 140.373 235.197 140.318 235.225C137.273 236.338 134.221 238.348 131.623 240.951C126.487 246.118 123.977 252.729 125.39 257.368C125.25 257.772 125.178 258.195 125.177 258.621C125.177 260.763 126.918 262.5 129.066 262.5C129.603 262.498 130.135 262.385 130.626 262.168C135.27 263.213 141.577 260.643 146.509 255.696C149.305 252.883 151.4 249.555 152.428 246.292C154.721 239.757 159.648 234.433 165.906 231.438C166.055 231.367 166.176 231.293 166.284 231.218C168.382 230.217 169.917 228.328 170.464 226.073C180.062 237.366 194.457 244.577 210.55 244.955C240.065 245.648 262.126 223.979 263.146 192.819C263.659 177.137 257.576 156.917 243.715 140.334C233.121 127.66 217.588 117.138 200 112.5Z" fill="#FFD700"/>
</g>
<defs>
<clipPath id="clip0_7_283">
<rect width="1200" height="600" fill="white"/>
</clipPath>
</defs>
</svg>
